<svg xmlns="http://www.w3.org/2000/svg" width="167.619" height="22.293" viewBox="0 0 167.619 22.293">
  <g id="scan-speak" transform="translate(-26.97 -24.992)">
    <path id="Path_8288" data-name="Path 8288" d="M42.32,126.844a.208.208,0,0,1,.263.124,1.846,1.846,0,0,1,.205.435,14.2,14.2,0,0,1,.381,1.6,31.807,31.807,0,0,0,2.058,7.252,28.153,28.153,0,0,0,1.864,3.928,11.359,11.359,0,0,0,1.209,1.713,4.962,4.962,0,0,0,1.979,1.3,4.835,4.835,0,0,0,1.949.372,3.8,3.8,0,0,0,1.943-.55,7.083,7.083,0,0,0,1.65-1.426c.462-.541.907-1.106,1.333-1.671a21.421,21.421,0,0,1,1.408-1.728,6.1,6.1,0,0,1,4.768-1.919c-.209.051-.42.1-.629.151a7.4,7.4,0,0,0-4.3,2.992c-.529.771-1.036,1.553-1.559,2.33a13.46,13.46,0,0,1-1.7,2.139,8.95,8.95,0,0,1-1.067.907,4.726,4.726,0,0,1-3.762.771,8.24,8.24,0,0,1-4.768-2.865c-.3-.354-.562-.746-.84-1.121l-.136-.181v.23a17.563,17.563,0,0,1-.233,3.98,7.464,7.464,0,0,1-.692,2.133,3.23,3.23,0,0,1-.973,1.178c-.1.073-.218.13-.354.215Z" transform="translate(-15.35 -101.84)" fill="#707070"/>
    <path id="Path_8289" data-name="Path 8289" d="M300.123,166.019v-6.361c0-.414.127-.532.529-.523h1.677c.344,0,.453.109.453.453v9.126a1.011,1.011,0,0,1,0,.136.3.3,0,0,1-.32.3h-2.139a.474.474,0,0,1-.32-.16l-2.541-2.26-4.865-4.324-.181-.154-.051.021v6.346c0,.459-.063.52-.514.52h-1.725a.365.365,0,0,1-.417-.42v-9.041a1.681,1.681,0,0,1,0-.275.3.3,0,0,1,.3-.3,1.247,1.247,0,0,1,.184,0h1.75a.8.8,0,0,1,.6.227q3.671,3.273,7.355,6.536l.172.142Z" transform="translate(-187.979 -124.356)" fill="#707070"/>
    <path id="Path_8290" data-name="Path 8290" d="M126.374,168.925a15.574,15.574,0,0,1-3.282-.3,7,7,0,0,1-2.022-.737,3.953,3.953,0,0,1-1.082-.882,2.523,2.523,0,0,1-.6-1.478c-.021-.3.091-.42.39-.435.6-.03,1.178-.066,1.771-.091.317,0,.39.042.465.347a1.713,1.713,0,0,0,.907,1.148,5.7,5.7,0,0,0,1.7.526,10.713,10.713,0,0,0,2.8.085,5,5,0,0,0,1.771-.45,2.509,2.509,0,0,0,.483-.3.556.556,0,0,0,0-.907,2.012,2.012,0,0,0-.493-.3,6.321,6.321,0,0,0-1.511-.387c-1.112-.178-2.227-.335-3.324-.514a11.811,11.811,0,0,1-2.417-.6,4.327,4.327,0,0,1-1.16-.644,1.982,1.982,0,0,1-.713-1.046,1.813,1.813,0,0,1,.236-1.478,3,3,0,0,1,.967-.931,5.533,5.533,0,0,1,1.75-.674,13.224,13.224,0,0,1,3.378-.3,11.93,11.93,0,0,1,2.995.432,4.942,4.942,0,0,1,1.556.722,2.665,2.665,0,0,1,1.139,1.638,1.622,1.622,0,0,1,.033.32.3.3,0,0,1-.266.323.666.666,0,0,1-.136,0l-1.837.082c-.233,0-.357-.069-.4-.287a1.511,1.511,0,0,0-.907-1.067,4.327,4.327,0,0,0-1.438-.375,11.734,11.734,0,0,0-2.5,0,3.735,3.735,0,0,0-1.209.281,2.351,2.351,0,0,0-.6.381.435.435,0,0,0,.033.728,1.481,1.481,0,0,0,.5.263c.565.142,1.13.278,1.7.372,1.209.2,2.417.363,3.626.559a7.984,7.984,0,0,1,2.257.68,3.8,3.8,0,0,1,.907.586,2.049,2.049,0,0,1,.725,1.435,1.88,1.88,0,0,1-.227,1.085,2.822,2.822,0,0,1-.849.952,5.8,5.8,0,0,1-2.064.922,11.4,11.4,0,0,1-3.049.326Z" transform="translate(-69.126 -123.978)" fill="#707070"/>
    <path id="Path_8291" data-name="Path 8291" d="M177.95,168.976a13.413,13.413,0,0,1-3.505-.387,6.025,6.025,0,0,1-2.777-1.511,4.587,4.587,0,0,1-1.435-3.735,4.04,4.04,0,0,1,1.333-2.72,6.615,6.615,0,0,1,2.632-1.45,12.571,12.571,0,0,1,3.557-.538,11.573,11.573,0,0,1,3.39.393,6.391,6.391,0,0,1,2.1,1.012,4.124,4.124,0,0,1,1.154,1.3,1.949,1.949,0,0,1,.115.224.32.32,0,0,1-.257.447c-.263.048-.532.082-.795.118l-1.23.166a.344.344,0,0,1-.381-.193,3.149,3.149,0,0,0-2.167-1.565,8.4,8.4,0,0,0-2.49-.16,6.346,6.346,0,0,0-1.713.3,6.093,6.093,0,0,0-.964.423,2.886,2.886,0,0,0-1.484,2.417,3.414,3.414,0,0,0,.145,1.293,2.834,2.834,0,0,0,1.535,1.8,6.225,6.225,0,0,0,1.795.541,8.175,8.175,0,0,0,2.792-.039,4.91,4.91,0,0,0,1.426-.5,2.777,2.777,0,0,0,1.333-1.463c.106-.269.205-.3.5-.269l1.91.3a.336.336,0,0,1,.284.529,4.644,4.644,0,0,1-1.928,2.13,7.754,7.754,0,0,1-2.535.925A11.636,11.636,0,0,1,177.95,168.976Z" transform="translate(-104.599 -124.029)" fill="#707070"/>
    <path id="Path_8292" data-name="Path 8292" d="M243.864,169.24h-1.082a.483.483,0,0,1-.468-.26c-.5-.795-1.024-1.58-1.529-2.378a.384.384,0,0,0-.372-.2h-5.741a.366.366,0,0,0-.366.205c-.471.789-.958,1.568-1.432,2.357a.483.483,0,0,1-.477.275h-2.025a.541.541,0,0,1-.242-.048.3.3,0,0,1-.124-.4,1.475,1.475,0,0,1,.115-.2l5.862-9.065a.559.559,0,0,1,.541-.3h1.955a.5.5,0,0,1,.459.236q3.149,4.587,6.309,9.165l.051.076a.332.332,0,0,1-.3.544C244.614,169.237,244.239,169.24,243.864,169.24Zm-6.406-7.875c-.559,1.209-1.342,2.23-1.988,3.351.326.048,3.907.033,4.082-.015Z" transform="translate(-146.301 -124.444)" fill="#707070"/>
    <path id="Path_8293" data-name="Path 8293" d="M447.071,168.538h9.636v1.073c-.175.045-11.208.066-11.724.021-.045-.163-.066-8.866-.021-9.319.166-.048,10.821-.073,11.365-.024a1.879,1.879,0,0,1,.027.538v.553h-9.183a1.094,1.094,0,0,0-.121,0v2.831a7.349,7.349,0,0,0,.774,0h7.92v1.1h-8.672C447.026,165.553,447.017,168.27,447.071,168.538Z" transform="translate(-296.307 -125.169)" fill="#707070"/>
    <path id="Path_8294" data-name="Path 8294" d="M354.3,162.564l-1.973.082a1.047,1.047,0,0,1-.039-.1,1.864,1.864,0,0,0-1.13-1.251,4.556,4.556,0,0,0-1.4-.363,11.57,11.57,0,0,0-2.979.042,3.252,3.252,0,0,0-1.281.417,1.957,1.957,0,0,0-.414.323.761.761,0,0,0,.042,1.142,1.547,1.547,0,0,0,.68.369c.468.115.937.239,1.411.317,1.036.169,2.079.3,3.115.468a12.026,12.026,0,0,1,2.544.6,4.488,4.488,0,0,1,1.148.619,1.852,1.852,0,0,1,.7,1,1.632,1.632,0,0,1-.3,1.45,3.406,3.406,0,0,1-1.257.979,7.684,7.684,0,0,1-2.151.644,15.834,15.834,0,0,1-3.487.106,10.912,10.912,0,0,1-2.532-.429,5.016,5.016,0,0,1-1.84-.958,2.433,2.433,0,0,1-.907-1.577,1.409,1.409,0,0,1,0-.16l1.943-.1c.024.063.042.112.057.163a2,2,0,0,0,.994,1.263,5.11,5.11,0,0,0,1.559.538,10.722,10.722,0,0,0,3.841.054,4.7,4.7,0,0,0,1.227-.381,2.069,2.069,0,0,0,.635-.42.873.873,0,0,0,.024-1.224,1.628,1.628,0,0,0-.583-.4,5.5,5.5,0,0,0-1.432-.4c-1-.163-2-.3-3-.465a15.046,15.046,0,0,1-2.756-.6,5.877,5.877,0,0,1-.907-.414,2.65,2.65,0,0,1-.6-.462,1.487,1.487,0,0,1-.157-1.937,2.9,2.9,0,0,1,1.052-.907,5.687,5.687,0,0,1,1.426-.5,13.63,13.63,0,0,1,4.025-.245,9.99,9.99,0,0,1,2.345.429,3.97,3.97,0,0,1,1.75,1.015,2.025,2.025,0,0,1,.583,1.209A.622.622,0,0,1,354.3,162.564Z" transform="translate(-224.651 -124.829)" fill="#707070"/>
    <path id="Path_8295" data-name="Path 8295" d="M567.1,169.662h-2.5a.5.5,0,0,1-.351-.13q-2.638-2.239-5.285-4.466c-.051-.045-.106-.085-.169-.136l-2.581,1.511v3.221H554.15v-9.355h2.07v4.623l.242-.127q3.644-2.167,7.291-4.33a1.188,1.188,0,0,1,.668-.184H566.8v.054l-6.533,3.75,6.838,5.521Z" transform="translate(-372.519 -125.187)" fill="#707070"/>
    <path id="Path_8296" data-name="Path 8296" d="M395.16,169.683v-9.346h6.08a20.688,20.688,0,0,1,2.523.124,6.379,6.379,0,0,1,1.8.462,2.973,2.973,0,0,1,1.188.907,1.982,1.982,0,0,1,.024,2.436,3.239,3.239,0,0,1-1.49,1.109,7.518,7.518,0,0,1-1.858.411,19.923,19.923,0,0,1-2.363.106h-3.774l-.036.033v.018a.5.5,0,0,0,0,.066v3.647a15.166,15.166,0,0,1-2.091.027Zm2.067-4.916h4.267a8.763,8.763,0,0,0,1.943-.19,2.445,2.445,0,0,0,1.13-.532,1.263,1.263,0,0,0,.054-1.877,2.185,2.185,0,0,0-.777-.483,3.753,3.753,0,0,0-1.33-.23l-5.107-.021c-.057,0-.115.015-.181.021Z" transform="translate(-261.571 -125.219)" fill="#707070"/>
    <path id="Path_8297" data-name="Path 8297" d="M494.58,169.658c.06-.1.1-.163.139-.227l5.784-8.953a.356.356,0,0,1,.347-.193c.574,0,1.151.015,1.725,0a.484.484,0,0,1,.465.242q2.387,3.49,4.8,6.95l1.342,1.952c.042.06.079.124.133.205h-2.375L506,168.2c-.263-.4-.529-.81-.786-1.209a.3.3,0,0,0-.3-.169H498.7a.3.3,0,0,0-.3.166c-.5.834-1.015,1.659-1.511,2.5a.323.323,0,0,1-.326.178C495.916,169.655,495.278,169.658,494.58,169.658Zm9.86-3.862c-.906-1.511-1.916-2.919-2.741-4.49a10.668,10.668,0,0,1-1.194,2.324c-.42.659-.834,1.321-1.248,1.982a2.041,2.041,0,0,0-.1.184Z" transform="translate(-330.949 -125.183)" fill="#707070"/>
  </g>
</svg>
