<svg xmlns="http://www.w3.org/2000/svg" width="157.995" height="43.538" viewBox="0 0 157.995 43.538">
  <g id="focal" transform="translate(0)">
    <g id="Group_36" data-name="Group 36" transform="translate(0.044 36.798)">
      <g id="Group_32" data-name="Group 32">
        <g id="Group_31" data-name="Group 31">
          <path id="Path_23" data-name="Path 23" d="M826.87,717.84a3.376,3.376,0,0,1-3.37-3.37,3.37,3.37,0,1,1,3.37,3.37Zm0-6.226a2.913,2.913,0,1,0,2.912,2.913A2.925,2.925,0,0,0,826.87,711.614Z" transform="translate(-823.5 -711.1)" fill="#707070"/>
        </g>
      </g>
      <g id="Group_35" data-name="Group 35" transform="translate(1.828 1.257)">
        <g id="Group_34" data-name="Group 34">
          <g id="Group_33" data-name="Group 33">
            <path id="Path_24" data-name="Path 24" d="M828.3,715.871h-1.028v1.713H826.7V713.3h1.428a1.812,1.812,0,0,1,1.142.343,1.107,1.107,0,0,1,.4.971.911.911,0,0,1-.229.686,1.788,1.788,0,0,1-.628.457l1.028,1.828v.057h-.628Zm-1.028-.457h.857a1.079,1.079,0,0,0,.457-.114,1.508,1.508,0,0,0,.343-.286,1.059,1.059,0,0,0,.114-.4.779.779,0,0,0-.228-.628,1.223,1.223,0,0,0-.685-.229h-.857Z" transform="translate(-826.7 -713.3)" fill="#707070"/>
          </g>
        </g>
      </g>
    </g>
    <g id="Group_2681" data-name="Group 2681" transform="translate(0 0)">
      <path id="Path_25" data-name="Path 25" d="M1185.9,642.139c8.878-2.9,26.315-1.8,32.151,1.521-.637,1.486-1.308,2.971-1.98,4.527-1.132-.248-2.264-.531-3.4-.779a69.617,69.617,0,0,0-12.1-1.308,55.542,55.542,0,0,0-11.849,1.026c-.283.07-.531.141-.707-.248C1187.35,645.322,1186.607,643.766,1185.9,642.139Z" transform="translate(-1185.9 -640.464)" fill="#707070"/>
      <path id="Path_26" data-name="Path 26" d="M1225.105,674.121c-.636,1.415-1.273,2.724-1.874,4.068a65.788,65.788,0,0,0-17.331-3.82c.141-1.521.283-3.042.424-4.669A67.325,67.325,0,0,1,1225.105,674.121Z" transform="translate(-1198.826 -659.359)" fill="#707070"/>
      <path id="Path_27" data-name="Path 27" d="M1220.173,699.4c.389,4.6,2.652,7.6,7,9.055-.778,1.7-1.521,3.4-2.3,5.093-4.244-2.087-6.756-5.73-6.508-9.514A7.981,7.981,0,0,1,1220.173,699.4Z" transform="translate(-1206.874 -678.555)" fill="#707070"/>
      <path id="Path_28" data-name="Path 28" d="M1210.9,661.908c.636-.318,1.167-.6,1.733-.849,1.344-.6,2.688-1.167,4.067-1.733a4.918,4.918,0,0,1,2.582-.389c3.041.354,6.083.637,9.161.955v.248a6.886,6.886,0,0,1-.708.177,51.481,51.481,0,0,0-8.17,2.723,1.872,1.872,0,0,1-.99.106c-2.441-.389-4.881-.814-7.322-1.2C1211.148,662.014,1211.076,661.979,1210.9,661.908Z" transform="translate(-1202.058 -652.381)" fill="#707070"/>
      <path id="Path_29" data-name="Path 29" d="M1235.293,691.958c-4.315,1.308-5.8,2.228-8.347,5.2a7.613,7.613,0,0,1-.814-4.81.84.84,0,0,1,.318-.46c.743-.6,1.485-1.167,2.229-1.733a.723.723,0,0,1,.6-.106c2.016.566,4.032,1.167,6.048,1.768A.213.213,0,0,1,1235.293,691.958Z" transform="translate(-1211.843 -672.492)" fill="#707070"/>
      <g id="Group_65" data-name="Group 65" transform="translate(40.038 2.908)">
        <g id="Group_43" data-name="Group 43" transform="translate(111.448 0.288)">
          <g id="Group_39" data-name="Group 39">
            <g id="Group_38" data-name="Group 38">
              <path id="Path_30" data-name="Path 30" d="M1617.454,656.008a3.254,3.254,0,1,1,3.254-3.254A3.246,3.246,0,0,1,1617.454,656.008Zm0-6.083a2.83,2.83,0,1,0,2.83,2.829A2.838,2.838,0,0,0,1617.454,649.924Z" transform="translate(-1614.2 -649.5)" fill="#707070"/>
            </g>
          </g>
          <g id="Group_42" data-name="Group 42" transform="translate(1.698 1.203)">
            <g id="Group_41" data-name="Group 41">
              <g id="Group_40" data-name="Group 40">
                <path id="Path_31" data-name="Path 31" d="M1620.556,655.34h-.99v1.7H1619V652.9h1.38a1.69,1.69,0,0,1,1.1.318,1.172,1.172,0,0,1,.39.92,1.091,1.091,0,0,1-.213.672,1.318,1.318,0,0,1-.6.424l.99,1.769v.035h-.6Zm-.955-.425h.849a.981.981,0,0,0,.461-.106.624.624,0,0,0,.318-.283.75.75,0,0,0,.106-.425.729.729,0,0,0-.247-.6.96.96,0,0,0-.672-.212h-.849v1.627Z" transform="translate(-1619 -652.9)" fill="#707070"/>
              </g>
            </g>
          </g>
        </g>
        <g id="Group_44" data-name="Group 44" transform="translate(18.781 0.005)">
          <path id="Path_32" data-name="Path 32" d="M1364.189,648.7a11.885,11.885,0,1,1-11.99,11.778A11.627,11.627,0,0,1,1364.189,648.7Zm0,19.276a7.43,7.43,0,1,0,0-14.855,7.44,7.44,0,0,0-7.6,7.286A7.585,7.585,0,0,0,1364.189,667.976Z" transform="translate(-1352.199 -648.7)" fill="#707070"/>
        </g>
        <g id="Group_45" data-name="Group 45" transform="translate(68.722 0.389)">
          <path id="Path_33" data-name="Path 33" d="M1493.4,672.745c1.1-2.3,2.122-4.456,3.148-6.649q3.766-7.905,7.463-15.81c.177-.389.353-.531.778-.5,1.132.035,2.3,0,3.431.035a.824.824,0,0,1,.6.354c3.538,7.428,7.039,14.855,10.575,22.283.036.071.036.141.106.318-1.556,0-3.077,0-4.563-.036-.141,0-.353-.212-.424-.389-.672-1.379-1.308-2.724-1.91-4.1a.723.723,0,0,0-.778-.5h-10.54a.783.783,0,0,0-.814.5c-.637,1.379-1.274,2.724-1.98,4.1-.106.177-.354.424-.531.424C1496.477,672.745,1494.991,672.745,1493.4,672.745Zm9.373-9.514h7.427c-1.238-2.617-2.441-5.164-3.713-7.852C1505.213,658.067,1504.011,660.613,1502.773,663.231Z" transform="translate(-1493.4 -649.785)" fill="#707070"/>
        </g>
        <g id="Group_46" data-name="Group 46" transform="translate(45.829)">
          <path id="Path_34" data-name="Path 34" d="M1450.292,653.784c-1.2.814-2.37,1.627-3.537,2.44a7.719,7.719,0,0,0-11.424-1.026,7.556,7.556,0,0,0-.39,10.328c2.405,2.759,7.782,4.032,11.814-.637,1.167.778,2.37,1.556,3.572,2.334a11.638,11.638,0,0,1-12.7,4.917,11.9,11.9,0,1,1,12.662-18.357Z" transform="translate(-1428.672 -648.686)" fill="#707070"/>
        </g>
        <g id="Group_47" data-name="Group 47" transform="translate(0.071 0.394)">
          <path id="Path_35" data-name="Path 35" d="M1299.3,649.8h17.932v4.315h-13.546v4.1h8.983v4.492h-9.019v9.939H1299.3Z" transform="translate(-1299.3 -649.8)" fill="#707070"/>
        </g>
        <g id="Group_48" data-name="Group 48" transform="translate(97.831 0.43)">
          <path id="Path_36" data-name="Path 36" d="M1579.979,668.433h13.653v4.35H1575.7V649.9h4.315C1579.979,656.054,1579.979,662.173,1579.979,668.433Z" transform="translate(-1575.7 -649.9)" fill="#707070"/>
        </g>
        <g id="Group_49" data-name="Group 49" transform="translate(42.62 29.487)">
          <path id="Path_37" data-name="Path 37" d="M1423.031,734.972c.318.6.636,1.132.955,1.733-.672.212-1.167.142-1.415-.53a.747.747,0,0,0-.141-.212c-.6-1.026-.6-1.026-1.946-.813v1.627h-.884v-4.7c1.026,0,2.052-.035,3.077,0a1.277,1.277,0,0,1,1.167.991,1.382,1.382,0,0,1-.389,1.521C1423.42,734.724,1423.243,734.83,1423.031,734.972Zm-2.476-.884a16.931,16.931,0,0,0,1.909-.035c.213-.035.531-.318.531-.5a.792.792,0,0,0-.5-.566,18.287,18.287,0,0,0-1.98-.035C1420.555,733.38,1420.555,733.7,1420.555,734.087Z" transform="translate(-1419.6 -732.056)" fill="#707070"/>
        </g>
        <g id="Group_50" data-name="Group 50" transform="translate(104.092 29.456)">
          <path id="Path_38" data-name="Path 38" d="M1593.435,732.049a1.017,1.017,0,0,1,1.309.46c.637.884,1.344,1.7,2.158,2.688v-3.184h.919v4.633a1.1,1.1,0,0,1-1.344-.424c-.636-.884-1.38-1.7-2.157-2.688v3.148h-.919C1593.435,735.126,1593.435,733.605,1593.435,732.049Z" transform="translate(-1593.4 -731.967)" fill="#707070"/>
        </g>
        <g id="Group_51" data-name="Group 51" transform="translate(111.378 29.468)">
          <path id="Path_39" data-name="Path 39" d="M1614,736.739V732a15.391,15.391,0,0,1,2.865.177,2.383,2.383,0,0,1-.354,4.6C1615.7,736.775,1614.884,736.739,1614,736.739Zm.955-.919c.849,0,1.7.247,2.3-.6a1.325,1.325,0,0,0,.036-1.591c-.566-.884-1.485-.672-2.37-.672C1614.955,733.91,1614.955,734.83,1614.955,735.82Z" transform="translate(-1614 -732)" fill="#707070"/>
        </g>
        <g id="Group_52" data-name="Group 52" transform="translate(14.148 29.503)">
          <path id="Path_40" data-name="Path 40" d="M1340.02,733.8h1.556v.955h-1.556v1.1h2.865v.884a2.408,2.408,0,0,1-.459.071H1339.1v-4.7h3.678v.849h-2.758Z" transform="translate(-1339.1 -732.1)" fill="#707070"/>
        </g>
        <g id="Group_53" data-name="Group 53" transform="translate(89.024 29.397)">
          <path id="Path_41" data-name="Path 41" d="M1553.276,736.716a2.461,2.461,0,0,1-2.476-2.476,2.38,2.38,0,0,1,2.44-2.44,2.461,2.461,0,0,1,2.511,2.44A2.417,2.417,0,0,1,1553.276,736.716Zm.035-.955a1.57,1.57,0,0,0,1.557-1.556,1.525,1.525,0,0,0-1.521-1.485,1.522,1.522,0,1,0-.036,3.042Z" transform="translate(-1550.8 -731.8)" fill="#707070"/>
        </g>
        <g id="Group_54" data-name="Group 54" transform="translate(31.655 29.551)">
          <path id="Path_42" data-name="Path 42" d="M1389.519,735.123v1.733h-.92v-4.6c1.131,0,2.264-.071,3.431.035a1.384,1.384,0,0,1,.99,1.521,1.441,1.441,0,0,1-1.344,1.309C1390.97,735.158,1390.3,735.123,1389.519,735.123Zm.035-.92a16.922,16.922,0,0,0,1.91-.035c.212-.035.389-.318.6-.5-.177-.212-.353-.53-.566-.566a16.885,16.885,0,0,0-1.91-.035C1389.554,733.5,1389.554,733.814,1389.554,734.2Z" transform="translate(-1388.599 -732.235)" fill="#707070"/>
        </g>
        <g id="Group_55" data-name="Group 55" transform="translate(64.088 29.397)">
          <path id="Path_43" data-name="Path 43" d="M1485.25,734.24a2.409,2.409,0,0,1-2.441,2.476,2.458,2.458,0,1,1,2.441-2.476Zm-4-.106a1.522,1.522,0,0,0,1.45,1.627,1.544,1.544,0,0,0,1.627-1.45,1.542,1.542,0,0,0-3.077-.177Z" transform="translate(-1480.298 -731.8)" fill="#707070"/>
        </g>
        <g id="Group_56" data-name="Group 56" transform="translate(82.163 29.374)">
          <path id="Path_44" data-name="Path 44" d="M1535.5,732.324a5.253,5.253,0,0,0-.389.6c-.708-.071-1.309-.177-1.946-.212-.177,0-.389.212-.566.354.177.142.318.353.531.389.46.141.955.141,1.415.248a1.5,1.5,0,0,1,1.273,1.45,1.469,1.469,0,0,1-1.309,1.415,3.72,3.72,0,0,1-3.113-.707c.177-.212.318-.46.39-.531a21.369,21.369,0,0,0,2.369.283c.248,0,.531-.354.814-.53-.247-.177-.46-.46-.707-.531-.425-.141-.92-.141-1.344-.247-.743-.177-1.167-.6-1.2-1.2s.354-1.061,1.1-1.273A3.418,3.418,0,0,1,1535.5,732.324Z" transform="translate(-1531.4 -731.735)" fill="#707070"/>
        </g>
        <g id="Group_57" data-name="Group 57" transform="translate(24.546 29.367)">
          <path id="Path_45" data-name="Path 45" d="M1368.5,735.919c.177-.247.319-.46.389-.566.743.141,1.415.283,2.087.354a.789.789,0,0,0,.566-.106,1.046,1.046,0,0,0,.459-.5c.036-.106-.248-.389-.424-.424-.53-.141-1.061-.212-1.591-.318-.566-.141-1.1-.354-1.2-1.061a1.118,1.118,0,0,1,.743-1.309,3.347,3.347,0,0,1,3.148.283c-.177.248-.318.5-.424.6a18.394,18.394,0,0,0-1.839-.212c-.213,0-.461.247-.672.354a2.894,2.894,0,0,0,.6.389c.424.106.92.141,1.344.247a1.465,1.465,0,0,1,1.238,1.486,1.433,1.433,0,0,1-1.274,1.379A3.654,3.654,0,0,1,1368.5,735.919Z" transform="translate(-1368.5 -731.715)" fill="#707070"/>
        </g>
        <g id="Group_58" data-name="Group 58" transform="translate(6.826 29.538)">
          <path id="Path_46" data-name="Path 46" d="M1319.284,734.888v1.981h-.884V732.2h.884v1.662h2.617V732.2h.919v4.633h-.849v-1.945Z" transform="translate(-1318.4 -732.2)" fill="#707070"/>
        </g>
        <g id="Group_59" data-name="Group 59" transform="translate(96.676 29.468)">
          <path id="Path_47" data-name="Path 47" d="M1575.995,732.035h.849a28.046,28.046,0,0,1-.036,3.007,2.2,2.2,0,0,1-4.314,0,28.991,28.991,0,0,1-.035-3.042h.884v2.4a1.279,1.279,0,0,0,1.273,1.45,1.364,1.364,0,0,0,1.344-1.344c.035-.424,0-.849,0-1.238C1575.995,732.884,1575.995,732.5,1575.995,732.035Z" transform="translate(-1572.435 -732)" fill="#707070"/>
        </g>
        <g id="Group_60" data-name="Group 60" transform="translate(71.658 29.503)">
          <path id="Path_48" data-name="Path 48" d="M1502.62,736.769h-.919V732.1h3.784v.849h-2.83v.849h1.628v.955h-1.662Z" transform="translate(-1501.7 -732.1)" fill="#707070"/>
        </g>
        <g id="Group_61" data-name="Group 61" transform="translate(53.62 29.503)">
          <path id="Path_49" data-name="Path 49" d="M1452.256,732.984H1450.7V732.1h4.033v.849h-1.521v3.784h-.955Z" transform="translate(-1450.7 -732.1)" fill="#707070"/>
        </g>
        <g id="Group_62" data-name="Group 62" transform="translate(0 29.503)">
          <path id="Path_50" data-name="Path 50" d="M1301.576,736.769h-.955v-3.784H1299.1V732.1h4v.849h-1.521Z" transform="translate(-1299.1 -732.1)" fill="#707070"/>
        </g>
        <g id="Group_63" data-name="Group 63" transform="translate(49.906 29.503)">
          <path id="Path_51" data-name="Path 51" d="M1441.084,736.769h-.884V732.1h.884Z" transform="translate(-1440.2 -732.1)" fill="#707070"/>
        </g>
        <g id="Group_64" data-name="Group 64" transform="translate(38.871 29.503)">
          <path id="Path_52" data-name="Path 52" d="M1409.848,736.769H1409V732.1h.849Z" transform="translate(-1409 -732.1)" fill="#707070"/>
        </g>
      </g>
    </g>
  </g>
</svg>
