<svg xmlns="http://www.w3.org/2000/svg" width="154.067" height="34.342" viewBox="0 0 154.067 34.342">
  <g id="helix" transform="translate(0 0)">
    <g id="Group_30" data-name="Group 30">
      <g id="Group_21" data-name="Group 21" transform="translate(0 15.528)">
        <path id="Path_14" data-name="Path 14" d="M770.149,679.672c-1.251-1.643-2.7-3.168-4.107-4.772-.587.548-1.134,1.017-1.643,1.525v.235c1.721,1.917,3.442,3.872,5.163,5.789.234.274.508.548.939,1.056,0-.821.039-1.291,0-1.721C770.423,681.041,770.54,680.18,770.149,679.672Z" transform="translate(-764.4 -674.9)" fill="#707070"/>
      </g>
      <g id="Group_22" data-name="Group 22" transform="translate(120.704 4.684)">
        <path id="Path_15" data-name="Path 15" d="M1091.461,658.919c3.99-3.95,7.861-7.784,11.812-11.734-2.269,0-4.42-.039-6.571.039a2.651,2.651,0,0,0-1.643.665c-2.347,2.151-4.655,4.381-6.963,6.61-.273.274-.587.508-.978.86-.743-.782-1.447-1.408-2.034-2.151a5.04,5.04,0,0,0-4.967-2.034c-2.191.2-4.459.039-7,.039,3.051,2.973,5.867,5.71,8.762,8.527-2.934,2.777-5.788,5.476-8.878,8.448,2.5,0,4.654.039,6.806-.039a2.52,2.52,0,0,0,1.526-.626c1.447-1.291,2.777-2.7,4.459-4.342a6.674,6.674,0,0,0,.7,1.017c3.051,3.129,6.1,6.258,9.192,9.348a2.463,2.463,0,0,0,1.6.665c2.66.078,5.281.039,7.94.039.313,0,.626-.039,1.134-.078C1101.4,669.01,1096.546,664.082,1091.461,658.919Z" transform="translate(-1073 -647.175)" fill="#707070"/>
      </g>
      <g id="Group_23" data-name="Group 23" transform="translate(35.984 8.918)">
        <path id="Path_16" data-name="Path 16" d="M871.38,664.1h-6.454V658H856.4v16.584h8.526v-6.414h6.454v6.454h8.37V658.039h-8.37Z" transform="translate(-856.4 -658)" fill="#707070"/>
      </g>
      <g id="Group_24" data-name="Group 24" transform="translate(63.559 8.761)">
        <path id="Path_17" data-name="Path 17" d="M935.192,667.848h9.817v-4.029h-9.9v-2.386h12.4V657.6H926.9V674.34h20.652v-3.872H935.231C935.192,669.568,935.192,668.786,935.192,667.848Z" transform="translate(-926.9 -657.6)" fill="#707070"/>
      </g>
      <g id="Group_25" data-name="Group 25" transform="translate(17.288)">
        <path id="Path_18" data-name="Path 18" d="M808.6,669.424c5.163-5.711,10.209-11.226,15.293-16.819-5.085-5.789-10.13-11.5-15.293-17.405Z" transform="translate(-808.6 -635.2)" fill="#707070"/>
      </g>
      <g id="Group_26" data-name="Group 26" transform="translate(88.162 8.918)">
        <path id="Path_19" data-name="Path 19" d="M998.249,658H989.8v16.623h19.087v-4.068H998.249Z" transform="translate(-989.8 -658)" fill="#707070"/>
      </g>
      <g id="Group_27" data-name="Group 27" transform="translate(109.83 8.761)">
        <path id="Path_20" data-name="Path 20" d="M1045.2,674.34h8.449V657.6H1045.2Z" transform="translate(-1045.2 -657.6)" fill="#707070"/>
      </g>
      <g id="Group_28" data-name="Group 28" transform="translate(6.532 16.545)">
        <path id="Path_21" data-name="Path 21" d="M788.414,690.72a22.8,22.8,0,0,1-1.8-2.073,2.69,2.69,0,0,1-.782-2.19c.039-2.972,0-5.945,0-8.957H781.1v2.308h3.012v8.409a2,2,0,0,0,.274,1.213c1.6,1.917,3.286,3.755,5.163,5.867C789.588,693.458,789.861,691.894,788.414,690.72Z" transform="translate(-781.1 -677.5)" fill="#707070"/>
      </g>
      <g id="Group_29" data-name="Group 29" transform="translate(9.119 6.415)">
        <path id="Path_22" data-name="Path 22" d="M789.547,656.372V651.6c-1.838,1.369-2.151,2.386-1.565,4.772Z" transform="translate(-787.714 -651.6)" fill="#707070"/>
      </g>
    </g>
    <g id="Group_36" data-name="Group 36" transform="translate(23.116 29.687)">
      <g id="Group_32" data-name="Group 32">
        <g id="Group_31" data-name="Group 31">
          <path id="Path_23" data-name="Path 23" d="M825.808,715.715a2.312,2.312,0,0,1-2.308-2.308,2.308,2.308,0,1,1,2.308,2.308Zm0-4.263a1.995,1.995,0,1,0,1.994,1.995A2,2,0,0,0,825.808,711.452Z" transform="translate(-823.5 -711.1)" fill="#707070"/>
        </g>
      </g>
      <g id="Group_35" data-name="Group 35" transform="translate(1.252 0.86)">
        <g id="Group_34" data-name="Group 34">
          <g id="Group_33" data-name="Group 33">
            <path id="Path_24" data-name="Path 24" d="M827.8,715.06h-.7v1.173H826.7V713.3h.978a1.241,1.241,0,0,1,.782.235.758.758,0,0,1,.274.665.623.623,0,0,1-.156.469,1.224,1.224,0,0,1-.43.313l.7,1.252v.039h-.43Zm-.7-.313h.587a.738.738,0,0,0,.313-.078,1.027,1.027,0,0,0,.235-.2.723.723,0,0,0,.078-.274.533.533,0,0,0-.156-.43.837.837,0,0,0-.469-.157h-.587Z" transform="translate(-826.7 -713.3)" fill="#707070"/>
          </g>
        </g>
      </g>
    </g>
  </g>
</svg>
