<svg xmlns="http://www.w3.org/2000/svg" xmlns:xlink="http://www.w3.org/1999/xlink" width="190" height="90" viewBox="0 0 190 90">
  <defs>
    <clipPath id="clip-path">
      <path id="path18" d="M32.952-985.342H196.343v-33.36H32.952Z" transform="translate(-32.952 1018.701)" fill="#707070"/>
    </clipPath>
  </defs>
  <g id="match" transform="translate(-351 -2787.746)">
    <rect id="Rectangle_417" data-name="Rectangle 417" width="190" height="90" transform="translate(351 2787.746)" fill="none"/>
    <g id="g10" transform="translate(322.274 3837.529)">
      <g id="g12" transform="translate(41.725 -1021.783)">
        <g id="g14" clip-path="url(#clip-path)">
          <g id="g20" transform="translate(160.556 16.318)">
            <path id="path22" d="M-.105-.351v-.837H.678a.583.583,0,0,1,.264.049.362.362,0,0,1,.187.359A.385.385,0,0,1,1-.442.61.61,0,0,1,.64-.351ZM-.442.985h.337V-.074H.633a.715.715,0,0,1,.287.046A.353.353,0,0,1,1.091.3l.019.41a1.525,1.525,0,0,0,.017.2.477.477,0,0,0,.025.08h.414V.931a.2.2,0,0,1-.11-.15,1.192,1.192,0,0,1-.02-.211L1.417.241A.608.608,0,0,0,1.34-.074a.557.557,0,0,0-.217-.152.622.622,0,0,0,.254-.227A.607.607,0,0,0,1.47-.814.586.586,0,0,0,1.131-1.4a1.1,1.1,0,0,0-.457-.08H-.443V.985" transform="translate(0.443 1.478)" fill="#707070"/>
          </g>
          <g id="g24" transform="translate(76.99 19.373)">
            <path id="path26" d="M0,0H15.472" fill="#707070"/>
          </g>
          <path id="path28" d="M181.615-1018.685h4.837v19.356h-4.837Z" transform="translate(-68.269 1018.697)" fill="#707070"/>
          <g id="g30" transform="translate(76.99 0.012)">
            <path id="path32" d="M-1.5,0H-6.334V19.361H9.137V15.094H-1.5Z" transform="translate(6.335)" fill="#707070"/>
          </g>
          <g id="g34" transform="translate(40.135 0.012)">
            <path id="path36" d="M-5.924,0-24.937,19.355h5.14L-.783,0Z" transform="translate(24.938)" fill="#707070"/>
          </g>
          <g id="g38" transform="translate(30.104 0.012)">
            <path id="path40" d="M-5.924,0-24.937,19.355H-19.8L-.782,0Z" transform="translate(24.938)" fill="#707070"/>
          </g>
          <g id="g42" transform="translate(20.074 0.012)">
            <path id="path44" d="M-5.924,0-24.939,19.355H-19.8L-.782,0Z" transform="translate(24.939)" fill="#707070"/>
          </g>
          <g id="g46" transform="translate(10.045 0.012)">
            <path id="path48" d="M-5.924,0-24.936,19.355h5.143L-.782,0Z" transform="translate(24.936)" fill="#707070"/>
          </g>
          <g id="g50" transform="translate(0 0.012)">
            <path id="path52" d="M-5.928,0-24.954,19.355H-19.8L-.784,0Z" transform="translate(24.954)" fill="#707070"/>
          </g>
          <g id="g54" transform="translate(140.321 0.011)">
            <path id="path56" d="M-5.663-1.265v-4.06H-17.257a8.291,8.291,0,0,0-3.594.518,3.971,3.971,0,0,0-2.457,2.437,8.744,8.744,0,0,0-.532,3.632V14.032H-5.663V9.765H-19V6.091H-7.4V2.221H-19V-1.265H-5.663" transform="translate(23.84 5.326)" fill="#707070"/>
          </g>
          <g id="g58" transform="translate(50.582 0.01)">
            <path id="path60" d="M-6.413-.038a6.94,6.94,0,0,0-3.712,2.05c-2.091,2.1-1.808,1.9-16.87,17.185h6.222L-6.685,5.028-6.678,19.2H-1.84V-.158L-5.2-.16a8.1,8.1,0,0,0-1.214.122" transform="translate(26.995 0.16)" fill="#707070"/>
          </g>
          <g id="g62" transform="translate(119.339 0.011)">
            <path id="path64" d="M-4.73-3.929s-4.884-6.242-6.67-8.589c-1.107-1.445-2.616-4-6.511-4-.664-.022-1.131-.022-2-.021V2.816h4.657V-9.937L-5.44,2.819h1.2v0H-.074V-16.54H-4.73V-3.929" transform="translate(19.91 16.54)" fill="#707070"/>
          </g>
          <g id="g66" transform="translate(93.436 0.012)">
            <path id="path68" d="M-3.946,0H-16.609V19.356h4.9V12.931h7.759C.321,12.888,2.34,11.14,2.34,7.65V5.136C2.34,1.861.321.033-3.946,0M-2.12,7.183c-.02.588-.106,1.544-2.182,1.55l-7.405,0V4.25h7.4c2.074.017,2.167.937,2.187,1.548V7.183" transform="translate(16.609)" fill="#707070"/>
          </g>
          <g id="g70" transform="translate(159.643 15.666)">
            <path id="path72" d="M0-.583A1.866,1.866,0,0,0,1.877,1.279,1.862,1.862,0,0,0,3.747-.583,1.87,1.87,0,0,0,1.877-2.454,1.875,1.875,0,0,0,0-.583m.1,0A1.778,1.778,0,0,1,1.877-2.357,1.776,1.776,0,0,1,3.649-.583,1.768,1.768,0,0,1,1.877,1.182,1.77,1.77,0,0,1,.1-.583" transform="translate(0 2.454)" fill="#707070"/>
          </g>
          <g id="g74" transform="translate(20.102 24.41)">
            <path id="path76" d="M-.336-.3V4.632h1.2A1.233,1.233,0,0,0,2.2,3.3V1.028A1.233,1.233,0,0,0,.868-.3ZM3.278,1.028V3.3A2.192,2.192,0,0,1,.868,5.607H-1.416V-1.279H.868a2.192,2.192,0,0,1,2.41,2.306" transform="translate(1.416 1.279)" fill="#707070"/>
          </g>
          <g id="g78" transform="translate(25.73 26.066)">
            <path id="path80" d="M0-1.629V-6.754H.87l.1.608a1.465,1.465,0,0,1,1.268-.713.9.9,0,0,1,.283.031v.985a2.189,2.189,0,0,0-.377-.042A1.022,1.022,0,0,0,1.048-4.8v3.176Z" transform="translate(0 6.859)" fill="#707070"/>
          </g>
          <path id="path82" d="M71.869-979.888H70.821v-5.125h1.048Zm-.524-7.168a.613.613,0,0,1,.619.618.606.606,0,0,1-.619.618.606.606,0,0,1-.619-.618.613.613,0,0,1,.619-.618" transform="translate(-41.926 1011.184)" fill="#707070"/>
          <g id="g84" transform="translate(30.582 26.171)">
            <path id="path86" d="M-.522-1.6-2.2-6.721h1.121L.044-2.959l1.11-3.763H2.223L.536-1.6Z" transform="translate(2.199 6.721)" fill="#707070"/>
          </g>
          <path id="path88" d="M80.72-979.888H79.672v-5.125H80.72Zm-.524-7.168a.613.613,0,0,1,.619.618.606.606,0,0,1-.619.618.606.606,0,0,1-.619-.618.613.613,0,0,1,.619-.618" transform="translate(-44.029 1011.184)" fill="#707070"/>
          <g id="g90" transform="translate(37.708 26.066)">
            <path id="path92" d="M0-1.629V-6.754H.87l.094.545a1.61,1.61,0,0,1,1.341-.65A1.664,1.664,0,0,1,4.034-4.973v3.343H3v-3.3a.919.919,0,0,0-.954-1.016.979.979,0,0,0-.995,1.058v3.259Z" transform="translate(0 6.859)" fill="#707070"/>
          </g>
          <g id="g94" transform="translate(42.611 26.066)">
            <path id="path96" d="M-.934-.986v-1.2A.988.988,0,0,0-1.94-3.239a.917.917,0,0,0-.943,1.016V-.944A.916.916,0,0,0-1.94.072.988.988,0,0,0-.934-.986m-3-1.216a1.718,1.718,0,0,1,1.76-1.949,1.564,1.564,0,0,1,1.31.629l.1-.524H.1V1.3A1.8,1.8,0,0,1-1.888,3.142c-1.173,0-1.97-.639-1.97-1.6V1.508h1.006v.084c0,.4.315.712.953.712A.881.881,0,0,0-.934,1.34V.449A1.572,1.572,0,0,1-2.171.984,1.718,1.718,0,0,1-3.931-.965V-2.2Z" transform="translate(3.931 4.151)" fill="#707070"/>
          </g>
          <g id="g98" transform="translate(50.135 24.41)">
            <path id="path100" d="M-.31-.673V4.054h-1V-2.831h.933L1.335.428l1.7-3.259h.932V4.054H2.918V-.652L1.639,1.79H1Z" transform="translate(1.306 2.831)" fill="#707070"/>
          </g>
          <g id="g102" transform="translate(56.109 26.066)">
            <path id="path104" d="M-.327-1.055A.961.961,0,0,0,.659,0a.96.96,0,0,0,.984-1.058V-2.49A.961.961,0,0,0,.659-3.549.961.961,0,0,0-.327-2.49Zm3.018-.084A1.914,1.914,0,0,1,.659.894,1.914,1.914,0,0,1-1.375-1.139V-2.407A1.915,1.915,0,0,1,.659-4.44,1.914,1.914,0,0,1,2.692-2.407v1.269Z" transform="translate(1.375 4.44)" fill="#707070"/>
          </g>
          <g id="g106" transform="translate(60.856 24.2)">
            <path id="path108" d="M-.934-1.642V-3.12a.92.92,0,0,0-.954-1.017.98.98,0,0,0-.995,1.059v1.383A.983.983,0,0,0-1.888-.626.92.92,0,0,0-.934-1.642M-3.061.181h-.87V-6.914h1.048V-4.5a1.548,1.548,0,0,1,1.236-.545A1.716,1.716,0,0,1,.1-3.1v1.435A1.715,1.715,0,0,1-1.647.286a1.548,1.548,0,0,1-1.32-.639l-.094.534Z" transform="translate(3.931 6.914)" fill="#707070"/>
          </g>
          <path id="path110" d="M120.207-979.888h-1.048v-5.125h1.048Zm-.523-7.168a.613.613,0,0,1,.618.618.606.606,0,0,1-.618.618.606.606,0,0,1-.619-.618.613.613,0,0,1,.619-.618" transform="translate(-53.409 1011.184)" fill="#707070"/>
          <path id="path112" d="M123.043-979.866h-1.038v-7.094h1.038Z" transform="translate(-54.108 1011.161)" fill="#707070"/>
          <g id="g114" transform="translate(69.857 26.066)">
            <path id="path116" d="M-.32-.653H1.639V-.842A.967.967,0,0,0,.665-1.91.969.969,0,0,0-.32-.842ZM2.635.73V.793A1.779,1.779,0,0,1,.665,2.585,1.879,1.879,0,0,1-1.347.605V-.716A1.9,1.9,0,0,1,.665-2.749,1.888,1.888,0,0,1,2.635-.716V.091H-.32V.71a.963.963,0,0,0,1,1.037A.883.883,0,0,0,1.639.815V.73h1Z" transform="translate(1.347 2.749)" fill="#707070"/>
          </g>
          <g id="g118" transform="translate(77.172 24.41)">
            <path id="path120" d="M-.31-.673V4.054h-1V-2.831h.933L1.335.428l1.7-3.259h.932V4.054H2.918V-.652L1.639,1.79H1Z" transform="translate(1.306 2.831)" fill="#707070"/>
          </g>
          <g id="g122" transform="translate(83.354 26.066)">
            <path id="path124" d="M-.32-.653H1.639V-.842A.967.967,0,0,0,.665-1.91.969.969,0,0,0-.32-.842ZM2.635.73V.793A1.779,1.779,0,0,1,.665,2.585,1.879,1.879,0,0,1-1.347.605V-.716A1.9,1.9,0,0,1,.665-2.749,1.888,1.888,0,0,1,2.635-.716V.091H-.32V.71A.962.962,0,0,0,.675,1.747.883.883,0,0,0,1.639.815V.73h1Z" transform="translate(1.347 2.749)" fill="#707070"/>
          </g>
          <g id="g126" transform="translate(88.091 24.2)">
            <path id="path128" d="M-.934-1.626V-3.009A.988.988,0,0,0-1.94-4.068a.917.917,0,0,0-.943,1.016v1.478A.917.917,0,0,0-1.94-.557.991.991,0,0,0-.934-1.626M-.861-.284a1.546,1.546,0,0,1-1.31.639,1.718,1.718,0,0,1-1.76-1.949V-3.03a1.718,1.718,0,0,1,1.76-1.95,1.58,1.58,0,0,1,1.237.545v-2.41H.1V.249h-.86Z" transform="translate(3.931 6.845)" fill="#707070"/>
          </g>
          <path id="path130" d="M156.2-979.888h-1.048v-5.125H156.2Zm-.523-7.168a.613.613,0,0,1,.618.618.606.606,0,0,1-.618.618.606.606,0,0,1-.619-.618.613.613,0,0,1,.619-.618" transform="translate(-61.961 1011.184)" fill="#707070"/>
          <g id="g132" transform="translate(95.154 26.066)">
            <path id="path134" d="M-.934-1.045V-2.428A.988.988,0,0,0-1.94-3.487a.917.917,0,0,0-.943,1.016V-.993A.917.917,0,0,0-1.94.024.991.991,0,0,0-.934-1.045m-3-1.4A1.718,1.718,0,0,1-2.171-4.4a1.564,1.564,0,0,1,1.31.629l.1-.524H.1V.831h-.86L-.861.3a1.546,1.546,0,0,1-1.31.639,1.718,1.718,0,0,1-1.76-1.949Z" transform="translate(3.931 4.399)" fill="#707070"/>
          </g>
          <path id="path136" d="M168.7-979.8h-1.079v-6.885H168.7Z" transform="translate(-64.945 1011.095)" fill="#707070"/>
          <g id="g138" transform="translate(104.732 26.066)">
            <path id="path140" d="M0-1.629V-6.754H.87l.094.545a1.61,1.61,0,0,1,1.341-.65,1.664,1.664,0,0,1,1.73,1.886v3.343H3v-3.3a.919.919,0,0,0-.954-1.016.98.98,0,0,0-.995,1.058v3.259Z" transform="translate(0 6.859)" fill="#707070"/>
          </g>
          <g id="g142" transform="translate(109.741 26.066)">
            <path id="path144" d="M0-1.629V-6.754H.87l.094.545a1.61,1.61,0,0,1,1.341-.65,1.664,1.664,0,0,1,1.73,1.886v3.343H3v-3.3a.919.919,0,0,0-.954-1.016.98.98,0,0,0-.995,1.058v3.259Z" transform="translate(0 6.859)" fill="#707070"/>
          </g>
          <g id="g146" transform="translate(114.571 26.066)">
            <path id="path148" d="M-.327-1.055A.961.961,0,0,0,.659,0a.96.96,0,0,0,.984-1.058V-2.49A.961.961,0,0,0,.659-3.549.961.961,0,0,0-.327-2.49Zm3.018-.084A1.914,1.914,0,0,1,.659.894,1.914,1.914,0,0,1-1.375-1.139V-2.407A1.915,1.915,0,0,1,.659-4.44,1.914,1.914,0,0,1,2.692-2.407v1.269Z" transform="translate(1.375 4.44)" fill="#707070"/>
          </g>
          <g id="g150" transform="translate(118.994 26.171)">
            <path id="path152" d="M-.522-1.6-2.2-6.721h1.121L.044-2.959l1.11-3.763H2.223L.536-1.6Z" transform="translate(2.199 6.721)" fill="#707070"/>
          </g>
          <g id="g154" transform="translate(123.793 26.066)">
            <path id="path156" d="M-.934-1.045V-2.428A.988.988,0,0,0-1.94-3.487a.917.917,0,0,0-.943,1.016V-.993A.917.917,0,0,0-1.94.024.991.991,0,0,0-.934-1.045m-3-1.4A1.718,1.718,0,0,1-2.171-4.4a1.564,1.564,0,0,1,1.31.629l.1-.524H.1V.831h-.86L-.861.3a1.546,1.546,0,0,1-1.31.639,1.718,1.718,0,0,1-1.76-1.949Z" transform="translate(3.931 4.399)" fill="#707070"/>
          </g>
          <g id="g158" transform="translate(128.467 24.808)">
            <path id="path160" d="M0-.438H.912v-1.4H1.949v1.4h.923v.87H1.949V4.645H.912V.432H0Z" transform="translate(0 1.842)" fill="#707070"/>
          </g>
          <path id="path162" d="M207.139-979.888h-1.048v-5.125h1.048Zm-.524-7.168a.613.613,0,0,1,.619.618.606.606,0,0,1-.619.618.606.606,0,0,1-.619-.618.613.613,0,0,1,.619-.618" transform="translate(-74.061 1011.184)" fill="#707070"/>
          <g id="g164" transform="translate(133.916 26.066)">
            <path id="path166" d="M-.327-1.055A.961.961,0,0,0,.659,0a.96.96,0,0,0,.984-1.058V-2.49A.961.961,0,0,0,.659-3.549.961.961,0,0,0-.327-2.49Zm3.018-.084A1.914,1.914,0,0,1,.659.894,1.914,1.914,0,0,1-1.375-1.139V-2.407A1.915,1.915,0,0,1,.659-4.44,1.914,1.914,0,0,1,2.692-2.407v1.269Z" transform="translate(1.375 4.44)" fill="#707070"/>
          </g>
          <g id="g168" transform="translate(138.872 26.066)">
            <path id="path170" d="M0-1.629V-6.754H.87l.094.545a1.61,1.61,0,0,1,1.341-.65,1.664,1.664,0,0,1,1.73,1.886v3.343H3v-3.3a.919.919,0,0,0-.954-1.016.98.98,0,0,0-.995,1.058v3.259Z" transform="translate(0 6.859)" fill="#707070"/>
          </g>
        </g>
      </g>
    </g>
  </g>
</svg>
