<svg xmlns="http://www.w3.org/2000/svg" width="212.94" height="37.49" viewBox="0 0 212.94 37.49">
  <path id="path4258" d="M76.861,38.49c-7.714,0-14.874-2.313-19.654-6.6a16.122,16.122,0,0,1-5.346-12.175A16.363,16.363,0,0,1,57.207,7.579C61.646,3.533,69.483,1,76.861,1c8.165,0,14.7,2.057,19.7,6.59a16.19,16.19,0,0,1,5.273,12.122,16.881,16.881,0,0,1-5.273,12.174c-4.652,4.318-11.963,6.6-19.7,6.6V33.545a14.82,14.82,0,0,0,10.544-4.053,13.111,13.111,0,0,0,3.861-9.781,13.611,13.611,0,0,0-3.861-9.8,15.838,15.838,0,0,0-21.106,0,13.674,13.674,0,0,0-3.851,9.8A13.7,13.7,0,0,0,66.3,29.493a15,15,0,0,0,10.561,4.053V38.49ZM20.482,1.018a32.349,32.349,0,0,0-12.8,2.551C4.009,5.209,1,7.862,1,12.259a9.024,9.024,0,0,0,2.447,6.216c1.071.986,2.794,2.664,7.3,3.649,2.014.44,6.32,1.117,10.608,1.565,4.256.449,8.445.876,10.151,1.308,1.355.345,3.632.815,3.632,3.369s-2.4,3.321-2.816,3.489a21.162,21.162,0,0,1-8.467,1.485,35.911,35.911,0,0,1-10.084-1.747,12.165,12.165,0,0,1-5.841-3.9,6.708,6.708,0,0,1-1.21-3.7H2.039V37.111h5.2V35.338A.743.743,0,0,1,8.369,34.7a41.06,41.06,0,0,0,7.614,2.461,32.528,32.528,0,0,0,7.9.982,33.883,33.883,0,0,0,10.59-1.492,18.523,18.523,0,0,0,6.289-3.108,8.615,8.615,0,0,0,3.369-6.9,9.66,9.66,0,0,0-2.722-6.79,11.887,11.887,0,0,0-3.372-2.291,24.77,24.77,0,0,0-4.141-1.447c-2.682-.658-8.747-1.471-11.648-1.775-3.041-.318-8.317-.755-10.425-1.407A2.511,2.511,0,0,1,9.88,10.6a3.207,3.207,0,0,1,1.773-2.724c1.869-1.171,5.643-1.9,9.577-1.9a27.75,27.75,0,0,1,11.1,2.167,12.192,12.192,0,0,1,2.641,1.574,7.942,7.942,0,0,1,2.6,4.355h4.2V2.655H37.079V3.982c0,.428-.443.985-1.279.525A35.649,35.649,0,0,0,20.481,1.018M123.332,3.093l22.894,20.661-.235-13.911c-.023-1.824-.359-2.586-2.332-2.586h-4.3V3.1h19.575V7.258h-4.2c-2.012,0-2.139.644-2.164,2.586l.355,26.58h-6.7L119.848,12.889l.006,16.7c.023,1.816.108,2.671,1.979,2.671h4.7v4.16H107.31V32.263H111.8c1.679,0,1.612-1.6,1.612-2.766V10c0-1.258-.177-2.741-2.812-2.741h-3.646V3.093ZM181.3,32.255a9.027,9.027,0,0,0,1.159-.072,1.436,1.436,0,0,0,.9-.8,4.64,4.64,0,0,0,.09-.9l0-6.576c0-.158-.012-.227-.28-.579-.3-.385-11.992-13.64-12.527-14.224a4.906,4.906,0,0,0-3.606-1.845h-4.068V3.1h22.956V7.253h-2.767c-.64,0-1.066.607-.519,1.282,0,0,7.724,9.239,7.8,9.336s.133.122.232.032,7.917-9.283,7.979-9.356a.8.8,0,0,0-.682-1.289h-2.839V3.1H213.94V7.258h-4.2a3.579,3.579,0,0,0-3.292,1.579c-.525.593-12.346,14.087-12.668,14.453a.887.887,0,0,0-.154.616v6.575a4.629,4.629,0,0,0,.09.9,1.432,1.432,0,0,0,.9.8,8.774,8.774,0,0,0,1.147.073h4.3v4.162H177.224V32.251l4.075,0Z" transform="translate(-1 -1)" fill="#707070"/>
</svg>
