<svg id="Pioneer_logo" xmlns="http://www.w3.org/2000/svg" width="320.771" height="46.622" viewBox="0 0 320.771 46.622">
  <path id="Path_8310" data-name="Path 8310" d="M53.635,16.973C52.452,20.311,45,23.8,26.688,19.659l2.381,10.813c18.31,3.328,29.163.591,35.362-5.917,4.592-4.823,5.491-11.063,1.719-15.837C62.16,3.664,53.321,0,42.158,0,26.191,0,14.813,4.626,8.5,21.985L0,45.325H14.86l8.453-23.6C26.781,12.012,34.069,10.4,42.158,10.4,50.64,10.4,54.735,13.9,53.635,16.973Z" fill="#707070"/>
  <path id="Path_8311" data-name="Path 8311" d="M238.444,30.908l-.575-.248a28.593,28.593,0,0,1,10.521-2.043c2.177,0,7.017.369,9.056,1.536.5.279.951.717.707,1.262C257.253,33.446,244,33.332,238.444,30.908Zm27.145-5.458a37.681,37.681,0,0,0-14.966-3.606c-11.749-.484-25.141,3.524-27.809,12.995-1.541,5.448,3.739,12.807,17.487,14.9,6.88,1.055,17.808.788,25.674-1.811l2.937-8.086c-15.952,5.482-36.8,3.89-36.1-4.32,7.718,4.951,18.979,4.481,27.317,3.115C274.57,36.274,274.359,30.136,265.589,25.45Z" transform="translate(-37.671 -3.691)" fill="#707070"/>
  <path id="Path_8312" data-name="Path 8312" d="M300.432,30.908l-.569-.248a28.569,28.569,0,0,1,10.514-2.043c2.185,0,7.017.369,9.059,1.536.5.279.95.717.706,1.262C319.241,33.446,305.991,33.332,300.432,30.908Zm27.146-5.458a37.66,37.66,0,0,0-14.966-3.606c-11.742-.484-25.135,3.524-27.81,12.995-1.536,5.448,3.746,12.807,17.488,14.9,6.878,1.055,17.814.788,25.677-1.811l2.939-8.086c-15.952,5.482-36.8,3.89-36.1-4.32,7.718,4.951,18.979,4.481,27.312,3.115C336.557,36.274,336.354,30.136,327.578,25.45Z" transform="translate(-48.163 -3.691)" fill="#707070"/>
  <path id="Path_8313" data-name="Path 8313" d="M348.2,32.625l-5.893,16.62h13.6l4.535-12.789c1.115-3.244,2.061-5.67,6.028-5.67h9.558l2.679-7.658H361.1C355.214,23.128,350.466,26.049,348.2,32.625Z" transform="translate(-57.941 -3.915)" fill="#707070"/>
  <path id="Path_8314" data-name="Path 8314" d="M75.078,49.245H89.162l9.519-26.117H84.6Z" transform="translate(-12.708 -3.915)" fill="#707070"/>
  <path id="Path_8315" data-name="Path 8315" d="M181.279,34.951c1.309-3.593,5.269-5.257,8.736-5.257,3.437,0,6.728,2.025,5.455,5.523L190.44,49h13.6l5.1-14c2.648-7.273-3.088-13.3-15.933-13.3-14.3,0-22.406,4.673-25.53,13.231L162.56,49h13.6Z" transform="translate(-27.516 -3.674)" fill="#707070"/>
  <path id="Path_8316" data-name="Path 8316" d="M129.127,29.979c5.5.232,9.927,3,9.138,6.591-.757,3.464-6.115,5.823-11.675,5.586-5.5-.228-9.922-3.006-9.139-6.6C118.212,32.1,123.568,29.737,129.127,29.979Zm1.917-8.119c-14.168-.6-26.792,5.455-28.49,13.2-1.674,7.621,7.9,14.611,22.119,15.213,14.165.6,26.793-5.453,28.493-13.2C154.835,29.452,145.265,22.457,131.043,21.86Z" transform="translate(-17.327 -3.693)" fill="#707070"/>
</svg>
