<svg xmlns="http://www.w3.org/2000/svg" width="128.864" height="59.322" viewBox="0 0 128.864 59.322">
  <g id="dragster" transform="translate(-1.403 -5.013)">
    <path id="Path_8299" data-name="Path 8299" d="M101.862,243.45c-.681.611-1.269,1.177-1.9,1.693a18.8,18.8,0,0,1-5.791,3.225,19.544,19.544,0,0,1-6.517.99H79.816a3.26,3.26,0,0,1-.706-.173,3.653,3.653,0,0,1,.223-.706q1.808-3.241,3.626-6.472,1.529-2.709,3.069-5.412c.9-1.6,1.785-3.211,2.717-4.793a1.071,1.071,0,0,1,.756-.485c3.4,0,6.8,0,10.193.137a6.631,6.631,0,0,1,4.126,1.562,3.763,3.763,0,0,1,1.395,3.021,6.635,6.635,0,0,0,.086.809l.218.036c.324-.614.656-1.225.974-1.841.463-.907.909-1.822,1.378-2.725a.879.879,0,0,1,.884-.508c1.534.025,3.069,0,4.606,0,.628,0,.717.153.424.709a4.492,4.492,0,0,0-.2.5l.134.123a5.4,5.4,0,0,0,.614-.365,6.592,6.592,0,0,1,3.593-1.314c.558-.045.686.218.418.7-.349.639-.711,1.269-1.038,1.916a1.548,1.548,0,0,0-.042.558,1.674,1.674,0,0,0,.485-.209,11.4,11.4,0,0,1,3.646-2.466c1.317-.519,2.695-.937,4.064-.173a4.129,4.129,0,0,1,.865.918c.1.112.226.335.3.318.173-.033.435-.159.466-.293.206-.9.837-.954,1.59-.932,1.395.039,2.79,0,4.168,0,.474,0,.558.145.338.558-1.066,2.112-2.123,4.229-3.188,6.341-.458.909-.929,1.813-1.381,2.725a2.51,2.51,0,0,0-.139.524l.134.081a5.914,5.914,0,0,0,.619-.558,11.184,11.184,0,0,1,4.617-3.317,4.781,4.781,0,0,1,3.626-.243,2.307,2.307,0,0,1,1.2,1.133c.075.137.142.279.3.577a9.622,9.622,0,0,0,.644-1.071.722.722,0,0,1,.742-.519h4.608c.435,0,.558.2.346.608-.455.89-.935,1.769-1.395,2.658a3.576,3.576,0,0,0-.184.608l.179.109c.232-.215.474-.416.689-.644.377-.4.756-.8,1.1-1.222s.589-.279.873,0a3.172,3.172,0,0,0,2.014.879,1.74,1.74,0,0,0,1.509-.48c.416-.457.321-.812-.245-.971-.474-.131-.954-.254-1.439-.343a1.824,1.824,0,0,1-1.459-2.36,7.116,7.116,0,0,1,3.5-4.276,10.886,10.886,0,0,1,6.952-1.116,12.665,12.665,0,0,1,1.953.639,1.638,1.638,0,0,0,.762-.014,8.5,8.5,0,0,1,1-.279,1.027,1.027,0,0,0,1.021-.558c.477-.982,1.024-1.928,1.49-2.915a1.061,1.061,0,0,1,1.08-.734c1.5.025,3,0,4.494,0,.683,0,.778.187.458.784q-.762,1.414-1.49,2.851c-.22.432-.053.664.432.644.279,0,.558-.047.82-.059.4-.017.5.192.332.522-.318.633-.661,1.253-.982,1.886-.159.315-.3.644-.441.971l.137.126c.312-.245.639-.477.937-.739a13.616,13.616,0,0,1,5.267-2.89,11.035,11.035,0,0,1,4.338-.31,3.335,3.335,0,0,1,2.949,1.88,7.642,7.642,0,0,1,.346,2.232,8.035,8.035,0,0,1-.07,1.264l.192.053a10.6,10.6,0,0,0,.589-.915c.611-1.2,1.2-2.41,1.8-3.626a.837.837,0,0,1,.837-.5c1.573.014,3.144,0,4.714,0,.558,0,.642.153.391.661a2.3,2.3,0,0,0-.117.583,2.008,2.008,0,0,0,.558-.215,6.7,6.7,0,0,1,3.682-1.375.572.572,0,0,1,.471.153.639.639,0,0,1-.07.5c-.781,1.559-1.582,3.108-2.363,4.667-.254.508-.458.639-.9.332-1.194-.837-3.328.131-3.984,1.116-.608.923-1.144,1.9-1.674,2.87-.491.912-.921,1.861-1.395,2.79a.971.971,0,0,1-.962.577c-1.518-.031-3.035,0-4.553-.014-.617,0-.75-.176-.483-.72.594-1.208,1.23-2.393,1.847-3.59a4.649,4.649,0,0,0,.234-.491c.106-.279-.02-.463-.312-.508a2.531,2.531,0,0,0-.438-.02h-7.451a1.428,1.428,0,0,0-1.361,1.618.759.759,0,0,0,.75.672,2.346,2.346,0,0,0,1.718-.558,2.017,2.017,0,0,1,1.068-.4c1.425-.045,2.851-.022,4.279-.014a4.838,4.838,0,0,1,.658.086l.086.2a28.657,28.657,0,0,1-2.511,2.05,12.327,12.327,0,0,1-7.775,2.12,5.3,5.3,0,0,1-2.809-.923,3.368,3.368,0,0,1-1.018-4.1,22.821,22.821,0,0,1,1.3-2.748c.165-.338,0-.5-.279-.558-1.35-.2-1.314-.332-1.995.988-1.041,2.022-2.056,4.059-3.083,6.09a1.229,1.229,0,0,1-1.264.812c-1.459-.059-2.924,0-4.385-.022-.65,0-.736-.12-.441-.709.767-1.526,1.562-3.041,2.343-4.558.324-.63.658-1.258.965-1.9.279-.577.109-.789-.558-.745a4.621,4.621,0,0,1-.485-.02c.279-1.205,1.155-2.106,1.426-3.244l-.184-.126c-.232.212-.48.407-.692.633-.524.558-1.043,1.116-1.543,1.71-.307.36-.558.427-.96.095a2.477,2.477,0,0,0-2.3-.583.639.639,0,0,0-.3.109c-.209.212-.391.449-.583.675a3.1,3.1,0,0,0,.734.558c.527.2,1.091.293,1.635.446,1.278.365,1.738,1.727,1.116,3.082a7.909,7.909,0,0,1-5.111,4.366,11.524,11.524,0,0,1-6.263.279,7.616,7.616,0,0,1-1.565-.628c-.508-.243-.756-.17-1,.318-.773,1.526-1.529,3.069-2.357,4.553a27.875,27.875,0,0,1-2.1,3.37,10.436,10.436,0,0,1-4.564,3.272,15.786,15.786,0,0,1-6.416,1.116,12.075,12.075,0,0,1-4-.837c-.46-.179-.538-.471-.234-.837.837-1.013,1.674-2.017,2.511-3.03.279-.326.524-.388.876-.1a5.121,5.121,0,0,0,7.71-1.953l.351-.792-.159-.131c-.427.279-.837.58-1.283.837a5.83,5.83,0,0,1-4.742.669,2.634,2.634,0,0,1-1.624-2.1,6.822,6.822,0,0,1,.5-3.052c.2-.6.151-.728-.513-.734h-4.276c-.9,0-.921-.031-.58-.893.045-.117.075-.237.165-.53a9.422,9.422,0,0,0-.9.444,6.735,6.735,0,0,1-4.834,1.138,2.421,2.421,0,0,1-1.953-1.953,6.608,6.608,0,0,1,.558-3.52c.173-.418.4-.812.589-1.227s.123-.658-.315-.887a2.719,2.719,0,0,0-2.608.279,4.823,4.823,0,0,0-2.059,2.343c-.739,1.437-1.453,2.884-2.193,4.321a.912.912,0,0,1-.9.508c-1.478-.022-2.96-.025-4.441,0-.513,0-.837-.089-.723-.689C101.954,243.71,101.915,243.64,101.862,243.45Zm-7.468-6.782v.139c-.764-.223-1.18.165-1.515.764-1.082,1.933-2.184,3.858-3.278,5.786-.209.371-.064.711.346.675a11.322,11.322,0,0,0,2.486-.357,6.91,6.91,0,0,0,4.416-3.956,1.9,1.9,0,0,0-.731-2.594C95.563,236.931,94.98,236.822,94.394,236.669Zm39.735,9.641a7.99,7.99,0,0,0,.876-.279,3.559,3.559,0,0,0,1.933-1.908,1.1,1.1,0,0,0-1.191-1.727,3.523,3.523,0,0,0-2.739,2.458C132.773,245.7,133.245,246.257,134.129,246.31Zm-9.331-8.888c.039-1-.435-1.395-1.314-1.264a3.362,3.362,0,0,0-2.667,2.307,1.1,1.1,0,0,0,1.174,1.557,2.865,2.865,0,0,0,1.018-.357A3.225,3.225,0,0,0,124.8,237.422Zm50.213-.611a6.122,6.122,0,0,0,1.038-.014,1.225,1.225,0,0,0,.689-.352,1.311,1.311,0,0,0,0-1.395,1.1,1.1,0,0,0-1.395-.279,10.688,10.688,0,0,0-1.7,1.412c-.324.318-.159.6.315.622.365.02.714.006,1.06.006Z" transform="translate(-65.103 -192.183)" fill="#707070"/>
    <path id="Path_8300" data-name="Path 8300" d="M67.345,127.551a4.416,4.416,0,0,1,.745-.17c1.674-.1,3.32-.209,4.979-.279a38.385,38.385,0,0,1,8.2.508A20.081,20.081,0,0,1,91,131.652c.2.162.368.352.575.5.321.223.5.112.558-.279.126-.937.2-1.889.4-2.812.421-1.953.9-3.905,1.367-5.858a4.464,4.464,0,0,1,.321-.756c.173-.377.391-.279.558,0a1.875,1.875,0,0,1,.19.678c.117,1.144.279,2.287.307,3.437a8.162,8.162,0,0,0,3.013,5.914,16.586,16.586,0,0,0,4.8,2.9c.435.181.862.4,1.308.558.187.064.558.081.6,0,.142-.234.3-.65.19-.812a14.412,14.412,0,0,0-1.526-1.824,9.826,9.826,0,0,0-3-1.632,4.611,4.611,0,0,1-2.407-5.83c.633-1.584,1.395-3.122,2.1-4.673.31-.678.63-1.353.971-2.014a4.014,4.014,0,0,1,.446-.586l.17.039a4.186,4.186,0,0,1,.028.7c-.187,1.448-.385,2.893-.586,4.338a6.292,6.292,0,0,0,.167,3.133,3.2,3.2,0,0,0,1.844,1.975c1.283.5,2.619.882,3.95,1.266a8.384,8.384,0,0,1,5.3,3.657,7.688,7.688,0,0,1,.9,2.215,14.634,14.634,0,0,1,.232,5.816c-.218,1.2-.391,2.41-.558,3.626a2.156,2.156,0,0,0,.1.608,2.134,2.134,0,0,0,.519-.318,8.516,8.516,0,0,0,1.911-3.878c.257-1.227.351-2.486.524-3.73.017-.117.064-.229.142-.51.206.279.4.455.441.647a26.224,26.224,0,0,1,.558,3.331,19.112,19.112,0,0,1-.77,6.221c-.449,1.632-.868,3.275-1.395,4.882-.43,1.331-.99,2.619-1.49,3.928a.667.667,0,0,1-.728.446H108.8c-.614,0-.647-.106-.6-.723a18.945,18.945,0,0,0-.123-4.912,16.019,16.019,0,0,0-1.5-4.6,15.086,15.086,0,0,0-4.223-5.021,20.294,20.294,0,0,0-7.225-3.5,31.669,31.669,0,0,0-10.98-.784,31.866,31.866,0,0,0-6.452,1.163c-1.953.558-3.933,1.116-5.822,1.861-1.953.776-3.844,1.746-5.721,2.706a44.556,44.556,0,0,0-8.185,5.526,43.442,43.442,0,0,0-8.157,8.793,32.4,32.4,0,0,0-3.551,6.7,21.647,21.647,0,0,0-1.3,10.751,9.429,9.429,0,0,0,.307,1.222c.123.441-.05.6-.488.6q-2.494-.02-4.985-.02c-.407,0-.605-.151-.608-.577,0-1.35-.025-2.7-.067-4.05,0-.248-.084-.661-.218-.7a1.18,1.18,0,0,0-.868.117,10.5,10.5,0,0,0-2.653,2.8c-.4.541-.784,1.1-1.169,1.649-.073.1-.126.218-.2.351-.483-.717.965-5.247,2.1-7.328a18.734,18.734,0,0,1,4.9-5.769l-.145-.237a2.676,2.676,0,0,0-.837.279c-1.562,1.222-3.1,2.477-4.647,3.719l-.605.508-.162-.07a2.962,2.962,0,0,1,.112-.689,20.008,20.008,0,0,1,6.815-8.581c.8-.6,1.651-1.133,2.46-1.718.142-.1.206-.315.3-.477a1.259,1.259,0,0,0-.4-.2,4.9,4.9,0,0,1-3.872-2.276,36.64,36.64,0,0,1-2.011-3.347c-.516-.9-1-1.813-1.5-2.725a5.948,5.948,0,0,1-.371-.806,1.835,1.835,0,0,1-.036-.5c.17,0,.371-.07.511,0a11.638,11.638,0,0,1,1.241.681c.837.527,1.612,1.138,2.48,1.593a6.589,6.589,0,0,0,2.059.675,13.541,13.541,0,0,0,6.79-.714c1.554-.572,3.085-1.2,4.614-1.83a.717.717,0,0,0,.374-.477c.02-.117-.2-.338-.354-.4a3.381,3.381,0,0,0-1.233-.371c-1.395.042-2.79.173-4.2.279-.817.059-1.635.123-2.455.17a1.472,1.472,0,0,1-.4-.1l-.073-.179a9.858,9.858,0,0,1,1.395-.837c2.036-.837,4.067-1.693,6.137-2.413a35.128,35.128,0,0,1,4.031-.993c1.266-.279,2.544-.488,3.813-.748a1.32,1.32,0,0,0,.388-.243c-.1-.112-.2-.279-.315-.318a19.622,19.622,0,0,0-2.625-.424,8.054,8.054,0,0,1-3.487-.8,4.1,4.1,0,0,1-2.009-2.075,2.106,2.106,0,0,0-2.265-1.261c-.558.047-1.116.184-1.674.254-.686.084-1.378.142-2.07.209l-.07-.215a2.765,2.765,0,0,1,.41-.452,8.173,8.173,0,0,1,5.8-1.674,8.337,8.337,0,0,1,3.445.965,4.511,4.511,0,0,0,1.657.53,10.98,10.98,0,0,0,6.026-1,16.748,16.748,0,0,1,9.178-1.724,18.868,18.868,0,0,1,4.689,1.258A.674.674,0,0,0,78.947,133a1.325,1.325,0,0,0-.293-1.465,5.766,5.766,0,0,0-2.686-1.512c-2.276-.653-4.583-1.191-6.876-1.777-.577-.148-1.149-.307-1.721-.46Z" transform="translate(-32.525 -113.547)" fill="#707070"/>
  </g>
</svg>
