<svg xmlns="http://www.w3.org/2000/svg" width="295.252" height="46.622" viewBox="0 0 295.252 46.622">
  <g id="layer1" transform="translate(-0.123 -0.157)">
    <g id="g3062" transform="translate(1306.669 -479.866)">
      <path id="path556" d="M-1306.547,481.322h6.062v42.392h-6.062Z" fill="#707070"/>
      <g id="g558" transform="translate(-1281.056 481.322)">
        <path id="path560" d="M0,0H7.143L-12.112,19.788l20.693,22.6H1.1L-19.429,19.952Z" fill="#707070"/>
      </g>
      <g id="g562" transform="translate(-1268.528 481.322)">
        <path id="path564" d="M0,0H29.922V4.956H6.059v13.1H28.524v4.962H6.059V37.43h24.8v4.962H0Z" fill="#707070"/>
      </g>
      <g id="g566" transform="translate(-1231.208 481.322)">
        <path id="path568" d="M0,0H6.927L30.109,34.171V0h6.066V42.392h-6.93L6.056,8.224V42.392H0Z" fill="#707070"/>
      </g>
      <g id="g570" transform="translate(-1040.968 518.752)">
        <path id="path572" d="M0,0H10.091a12.479,12.479,0,0,0,9.816-4.52A17.976,17.976,0,0,0,23.7-16.228a17.979,17.979,0,0,0-3.789-11.718,12.477,12.477,0,0,0-9.816-4.529H0ZM-6.062-37.43H10.4c6.521,0,11.342,2.454,14.522,6.325,3.2,3.868,4.756,9.177,4.756,14.877s-1.559,11-4.756,14.867c-3.18,3.881-8,6.322-14.522,6.322H-6.062Z" fill="#707070"/>
      </g>
      <g id="g574" transform="translate(-1155.34 513.679)">
        <path id="path576" d="M0,0,13.294-32.356h6.128L.269,12.965-8.28-5.841l-8.571,18.806-19.14-45.321h6.128L-16.586,0-8.28-17.28Z" fill="#707070"/>
      </g>
      <g id="g578" transform="translate(-1170.864 481.322)">
        <path id="path580" d="M0,0H14.467L7.242,15.076Z" fill="#707070"/>
      </g>
      <g id="g582" transform="translate(-1061.675 514.406)">
        <path id="path584" d="M0,0A21.077,21.077,0,0,0,3.4-11.881,21.076,21.076,0,0,0,0-23.769a12.507,12.507,0,0,0-10.674-5.517,12.486,12.486,0,0,0-10.674,5.517,21.055,21.055,0,0,0-3.4,11.888A21.056,21.056,0,0,0-21.348,0,12.512,12.512,0,0,0-10.674,5.511,12.533,12.533,0,0,0,0,0M-10.674,10.6A18.656,18.656,0,0,1-25,4.282c-3.521-3.984-5.574-9.6-5.574-16.163s2.054-12.2,5.574-16.173a18.666,18.666,0,0,1,14.326-6.329A18.7,18.7,0,0,1,3.652-28.054c3.514,3.977,5.561,9.6,5.561,16.173S7.166.3,3.652,4.282A18.686,18.686,0,0,1-10.674,10.6" fill="#707070"/>
      </g>
      <g id="g586" transform="translate(-1106.148 514.406)">
        <path id="path588" d="M0,0A21,21,0,0,0,3.4-11.881,21,21,0,0,0,0-23.769a12.479,12.479,0,0,0-10.667-5.517,12.491,12.491,0,0,0-10.674,5.517,21,21,0,0,0-3.4,11.888A21,21,0,0,0-21.341,0,12.516,12.516,0,0,0-10.667,5.511,12.5,12.5,0,0,0,0,0M-10.667,10.6A18.7,18.7,0,0,1-25,4.282c-3.514-3.984-5.568-9.6-5.568-16.163s2.054-12.2,5.568-16.173a18.71,18.71,0,0,1,14.332-6.329A18.681,18.681,0,0,1,3.658-28.054c3.508,3.977,5.574,9.6,5.574,16.173S7.166.3,3.658,4.282A18.671,18.671,0,0,1-10.667,10.6" fill="#707070"/>
      </g>
    </g>
  </g>
</svg>
