<svg xmlns="http://www.w3.org/2000/svg" width="114.643" height="48.163" viewBox="0 0 114.643 48.163">
  <g id="steg" transform="translate(0.05)">
    <path id="Path_8260" data-name="Path 8260" d="M210.493,50.708c.062-.306.125-.6.186-.907a5.817,5.817,0,0,1,5.545-4.573c1.743-.05,3.489-.031,5.234-.039,4.381-.018,8.761-.028,13.142-.058.357,0,.44.1.434.44q-.031,1.836,0,3.663c.005.335-.076.425-.42.423q-6.953-.046-13.906-.062a11.02,11.02,0,0,0-2.356.178,2.44,2.44,0,0,0-2.218,2.652,5.576,5.576,0,0,0,.08,1.329,2.712,2.712,0,0,0,1.823,2.168c1.953.7,3.931,1.325,5.91,1.949,2.218.7,4.451,1.371,6.671,2.072a19.118,19.118,0,0,1,2.735,1.169,5.618,5.618,0,0,1,3.126,4.381,13.7,13.7,0,0,1-.415,6.563,5.055,5.055,0,0,1-4.589,3.684,19.269,19.269,0,0,1-2.171.14q-9.074,0-18.148.009c-.35,0-.45-.086-.444-.44.022-1.234.024-2.468,0-3.7-.008-.371.12-.431.452-.43q7.986.017,15.97.012a9.177,9.177,0,0,0,1.3-.076A2.521,2.521,0,0,0,230.754,69a5.649,5.649,0,0,0,.059-1.445,3.08,3.08,0,0,0-1.94-2.707,28.421,28.421,0,0,0-3.278-1.154c-3.379-1.048-6.758-2.1-10.146-3.115a8.141,8.141,0,0,1-3.4-2.106,4.574,4.574,0,0,1-1.156-2.2c.081-.067.041-.109-.031-.143-.016-.054-.031-.108-.047-.162.082-.064.044-.106-.027-.143-.018-.076-.036-.158-.054-.238.085-.061.05-.106-.021-.144-.018-.1-.037-.21-.056-.314.089-.083.076-.157-.024-.219l-.046-.316a3.576,3.576,0,0,0-.094-1.286Z" transform="translate(-210.539 -45.13)" fill="#707070"/>
    <path id="Path_8261" data-name="Path 8261" d="M248.6,499.472c-.153,0-.306.007-.459.007H210.974c-.164,0-.33-.015-.494-.024v-3.283c.127,0,.255-.012.382-.012h37.511c.077,0,.153,0,.229.006Q248.607,497.82,248.6,499.472Z" transform="translate(-210.53 -461.665)" fill="#707070"/>
    <path id="Path_8262" data-name="Path 8262" d="M210.53,152a3.575,3.575,0,0,1,.094,1.286l-.094.011Z" transform="translate(-210.576 -143.827)" fill="#696969"/>
    <path id="Path_8263" data-name="Path 8263" d="M973.714,61.519V50.529a6.163,6.163,0,0,1,.429-2.272,3.467,3.467,0,0,1,3.442-2.177q8.329-.007,16.657-.008c1.248,0,2.5,0,3.744-.012.286,0,.368.076.365.363q-.023,1.908,0,3.816c0,.278-.063.371-.358.369-1.35-.011-2.7.007-4.049.008q-6.3.007-12.608.008c-1.283,0-1.807.528-1.8,1.81,0,2,.016,3.995,0,5.991,0,.346.1.417.427.416,5.795-.012,11.589-.008,17.384-.023.347,0,.428.1.426.423q-.011,1.836.024,3.663c.008.345-.076.447-.437.446q-8.673-.017-17.345-.007c-.6,0-.555-.093-.548.545q.033,3.452.067,6.905c.011.958.451,1.386,1.417,1.39q8.539.03,17.076.054c.311,0,.413.073.408.4-.02,1.208-.022,2.417,0,3.624.007.372-.067.492-.473.491-4.993-.017-9.984-.011-14.977-.011h-5.31a3.69,3.69,0,0,1-3.956-3.923c-.014-1.335,0-2.671,0-4.007Z" transform="translate(-915.388 -45.987)" fill="#707070"/>
    <path id="Path_8264" data-name="Path 8264" d="M1356.336,77.041c-2.344,0-4.689.071-7.029-.016a10.147,10.147,0,0,1-8.669-4.954,12.647,12.647,0,0,1-1.557-5.033,41.187,41.187,0,0,1-.038-9.591,15.37,15.37,0,0,1,.684-3.9,10.08,10.08,0,0,1,8.295-6.96,14.362,14.362,0,0,1,2.429-.21q7.757.014,15.511,0c.349,0,.452.088.445.443-.023,1.195-.019,2.391,0,3.586,0,.316-.083.408-.4.407-2.241-.009-4.482,0-6.723.005-2.294.006-4.584.009-6.876.028a9.386,9.386,0,0,0-3.543.672,5.879,5.879,0,0,0-3.594,4.3,27.42,27.42,0,0,0-.57,8.075,17.877,17.877,0,0,0,.574,3.8,6.083,6.083,0,0,0,6.177,4.752c2.753.026,5.5.047,8.251-.029a1.465,1.465,0,0,0,1.621-1.606c.031-.826.014-1.653.017-2.48.006-1.972.018-3.943.008-5.914,0-.372.093-.491.49-.486,1.629.021,3.26.011,4.889-.018.357-.007.408.109.408.428-.012,3.739-.031,7.479,0,11.218a3.24,3.24,0,0,1-2.893,3.4,4.853,4.853,0,0,1-.836.07Q1359.87,77.046,1356.336,77.041Z" transform="translate(-1252.54 -46.284)" fill="#707070"/>
    <path id="Path_8265" data-name="Path 8265" d="M567.809,45.138q7.258,0,14.518-.008c.353,0,.442.091.436.437q-.033,1.836,0,3.663c.005.331-.076.428-.418.426-3.744-.014-7.488,0-11.233-.017-.364,0-.464.086-.464.459q.027,12.651.029,25.3c0,.483,0,.483-.5.483-1.617,0-3.235-.009-4.853.007-.318,0-.4-.088-.4-.4q.009-6.984-.005-13.967c0-3.816-.019-7.632-.017-11.448,0-.324-.062-.43-.416-.426-3.744.033-7.487.041-11.231.072-.343,0-.426-.093-.421-.425q.03-1.87,0-3.74c-.006-.333.077-.421.417-.421Q560.53,45.148,567.809,45.138Z" transform="translate(-526.703 -45.13)" fill="#707070"/>
    <path id="Path_8266" data-name="Path 8266" d="M1211.241,496.153l5.425-.007h32.167c.58,0,.495-.063.5.514,0,.788-.015,1.578.009,2.366.01.337-.067.451-.431.447-1.836-.021-3.671-.01-5.5-.01H1211.66c-.14,0-.28,0-.42-.006Q1211.242,497.8,1211.241,496.153Z" transform="translate(-1134.752 -461.65)" fill="#707070"/>
    <path id="Path_8267" data-name="Path 8267" d="M748.526,536.992c-.138.01-.277.028-.415.028h-37.3c-.153,0-.306-.018-.454-.027-.016-.072-.032-.145-.049-.216.112.093.245.054.368.054h37.4a.648.648,0,0,0,.408-.06Z" transform="translate(-672.133 -499.169)" fill="#696969"/>
    <path id="Path_8268" data-name="Path 8268" d="M711,495.7c.138-.01.277-.029.415-.029h37.334c.138,0,.277.019.415.029-.011.07-.022.14-.034.21a.9.9,0,0,0-.45-.048H713.142c-.712,0-1.425-.007-2.137-.01Z" transform="translate(-672.77 -461.213)" fill="#696969"/>
    <path id="Path_8269" data-name="Path 8269" d="M1209.52,496.26c.011-.07.022-.14.034-.21l.1.016v3.3l-.095.016-.037-.221Z" transform="translate(-1133.164 -461.564)" fill="#2d4478"/>
    <path id="Path_8270" data-name="Path 8270" d="M709.153,496.05l0,.153a.611.611,0,0,0-.042.366c-.007.868-.008,1.736-.011,2.6.017.072.033.145.049.216l-.153-.017v-3.306Z" transform="translate(-670.923 -461.564)" fill="#2d4478"/>
    <path id="Path_8271" data-name="Path 8271" d="M212.118,172.94c.1.063.113.136.024.219A.211.211,0,0,1,212.118,172.94Z" transform="translate(-212.024 -163.165)" fill="#696969"/>
    <path id="Path_8272" data-name="Path 8272" d="M213.211,179.92c.071.038.106.083.021.144A.114.114,0,0,1,213.211,179.92Z" transform="translate(-213.037 -169.611)" fill="#696969"/>
    <path id="Path_8273" data-name="Path 8273" d="M214.229,184.91c.07.037.109.076.027.143A.115.115,0,0,1,214.229,184.91Z" transform="translate(-213.979 -174.22)" fill="#696969"/>
    <path id="Path_8274" data-name="Path 8274" d="M215.206,188.9c.071.034.112.076.031.143A.115.115,0,0,1,215.206,188.9Z" transform="translate(-214.882 -177.904)" fill="#696969"/>
    <path id="Path_8275" data-name="Path 8275" d="M710.31,500.98q0-1.3.012-2.6c0-.122-.037-.252.042-.366.712,0,1.425.01,2.137.01H748.04a.875.875,0,0,1,.45.048v2.906a.648.648,0,0,1-.408.06h-37.4C710.555,501.035,710.422,501.073,710.31,500.98Z" transform="translate(-672.133 -463.374)" fill="#fbfbfb"/>
    <path id="Path_8276" data-name="Path 8276" d="M2846.127,1334.166h-.395c-.429,0-.429,0-.545-.447-.163-.031-.248.107-.362.176a2.4,2.4,0,0,1-1.912.28,1.164,1.164,0,0,1-.915-1,1.256,1.256,0,0,1,.626-1.328,3.062,3.062,0,0,1,1.174-.315c.362-.055.723-.12,1.084-.182.179-.03.253-.124.244-.32a.742.742,0,0,0-.585-.777,1.931,1.931,0,0,0-.88-.037.792.792,0,0,0-.689.547c-.079.256-.224.285-.44.239-.124-.027-.249-.045-.4-.072a1.413,1.413,0,0,1,.893-1.188,3.067,3.067,0,0,1,1.952-.1,1.087,1.087,0,0,1,.914,1.158c.019.691.011,1.382.013,2.074A3.111,3.111,0,0,0,2846.127,1334.166Zm-1.007-2.254a10.109,10.109,0,0,1-1.369.286,2.039,2.039,0,0,0-.531.134.665.665,0,0,0-.182,1.115.83.83,0,0,0,.461.194,1.335,1.335,0,0,0,1.618-1.341C2845.121,1332.189,2845.12,1332.078,2845.12,1331.912Z" transform="translate(-2738.101 -1287.829)" fill="#020202"/>
    <path id="Path_8277" data-name="Path 8277" d="M2948.81,1336.671c.2.011.359.023.514.024a.608.608,0,0,0,.389-.144,1.288,1.288,0,0,0,.34-1.257l-1.572-4.174a2.032,2.032,0,0,1,.584-.047c.2-.03.272.075.33.241.346,1,.7,1.991,1.048,2.991.027.08.055.159.087.245.1-.015.093-.094.108-.144.316-1,.7-1.964,1.058-2.945.14-.39.143-.391.56-.386a.606.606,0,0,1,.294.028c.054.12-.031.214-.068.312q-.851,2.3-1.708,4.6a3.738,3.738,0,0,1-.44.912,1.141,1.141,0,0,1-1.222.479c-.187-.034-.275-.112-.277-.3C2948.829,1336.967,2948.818,1336.829,2948.81,1336.671Z" transform="translate(-2837.974 -1289.266)" fill="#020202"/>
    <path id="Path_8278" data-name="Path 8278" d="M2801.113,1308.525a.746.746,0,0,0-.164-.017c-.429.045-.345-.114-.359-.384-.009-.171.069-.209.227-.217.331-.016.33-.026.333-.356v-.085c0-.747,0-.747.764-1.1v1.1c0,.462-.067.448.417.446h.043c.32.007.308.007.314.334,0,.2-.062.263-.268.265-.507,0-.507.015-.507.518,0,.72.009,1.44,0,2.16,0,.445.119.668.584.6.152-.023.2.056.225.181.015.1.021.2.043.293.037.168-.041.24-.2.245a4.567,4.567,0,0,1-.677,0,.755.755,0,0,1-.7-.68,3.257,3.257,0,0,1-.042-.547c-.005-.777,0-1.555,0-2.329A.96.96,0,0,0,2801.113,1308.525Z" transform="translate(-2699.286 -1266.104)" fill="#020202"/>
    <path id="Path_8279" data-name="Path 8279" d="M2772.381,1303.7c.809-.113.809-.113.809.645v5.2c0,.352.022.345-.348.341h-.082c-.465-.008-.4.063-.4-.4q0-2.706,0-5.414A.805.805,0,0,1,2772.381,1303.7Z" transform="translate(-2672.8 -1263.55)" fill="#020202"/>
    <path id="Path_8280" data-name="Path 8280" d="M2924.831,1310.122c-.743.073-.743.073-.743-.633v-5.2c0-.329-.084-.366.37-.361h.253c.1,0,.156.046.151.153v5.795A.471.471,0,0,1,2924.831,1310.122Z" transform="translate(-2815.094 -1263.811)" fill="#020202"/>
  </g>
</svg>
