<svg xmlns="http://www.w3.org/2000/svg" width="111.565" height="52.862" viewBox="0 0 111.565 52.862">
  <g id="audio_system" data-name="audio system" transform="translate(0.012 -0.034)">
    <path id="Path_8231" data-name="Path 8231" d="M2974.5,79.713a1.086,1.086,0,0,1-.061.2,1.459,1.459,0,0,1-1.618.986,1.487,1.487,0,0,1-.028-2.933c.071,0,.141,0,.211-.006a1.439,1.439,0,0,1,1.373.826,1.115,1.115,0,0,1,.1.308A1.65,1.65,0,0,1,2974.5,79.713Zm-.164-.264a1.291,1.291,0,1,0-2.582-.03,1.291,1.291,0,1,0,2.582.03Z" transform="translate(-2862.973 -77.92)" fill="#020202"/>
    <path id="Path_8232" data-name="Path 8232" d="M253.3,836.906h54.438c.484,0,.442-.044.443.444v9.086c0,.415,0,.415-.424.415l-108.662,0c-.151,0-.3,0-.452,0-.18-.007-.186-.016-.2-.2,0-.044-.007-.089-.007-.133,0-1.009,0-2.019,0-3.028q0-2.975.01-5.95c0-.142-.01-.283-.009-.425,0-.181.02-.2.2-.208.071,0,.142,0,.213,0Zm45.773,4.683c.034.121.061.2.078.285.159.762.257,1.534.421,2.3.1.475.133.964.273,1.432.089.293.1.3.407.3l4.173.006q.292,0,.585-.017c.3-.018.4-.13.351-.429a2.934,2.934,0,0,0-.127-.459q-.871-2.642-1.748-5.286c-.167-.5-.339-1.005-.511-1.507a.46.46,0,0,0-.479-.341c-.273,0-.549-.013-.823-.013q-1.74,0-3.481,0c-.312,0-.62-.007-.93,0a.555.555,0,0,0-.51.317c-.491.86-.995,1.714-1.491,2.571a5.63,5.63,0,0,0-.483,1.031c-.017.05-.03.1-.052.151-.059.136-.135.142-.227.018-.011-.014-.018-.031-.027-.046a14.986,14.986,0,0,1-.839-1.414c-.362-.709-.741-1.41-1.112-2.114a1.849,1.849,0,0,0-.15-.248.6.6,0,0,0-.5-.25c-1.745,0-3.49-.008-5.235-.009-.338,0-.41.056-.52.379-.154.452-.3.906-.447,1.36q-.94,2.9-1.878,5.8a2.055,2.055,0,0,0-.078.335.129.129,0,0,0,.13.163c.053,0,.106.009.159.009h3.614q.624,0,1.248-.016a.421.421,0,0,0,.462-.351,1.6,1.6,0,0,0,.048-.179c.14-.675.276-1.352.42-2.026.113-.527.234-1.053.356-1.578.019-.081.007-.2.129-.2.1,0,.1.106.117.181a2.62,2.62,0,0,0,.306.732c.171.289.342.579.518.865.465.753.936,1.5,1.4,2.256a.594.594,0,0,0,.617.319,3.016,3.016,0,0,1,.345-.008c.77,0,1.541-.01,2.311-.008a.566.566,0,0,0,.495-.256c.051-.072.1-.147.147-.221.76-1.142,1.471-2.316,2.27-3.432C298.891,841.867,298.97,841.742,299.072,841.588Zm-25.01,4.313v.007h3.693c.5,0,.992,0,1.487-.018.28-.008.364-.093.387-.367a9.247,9.247,0,0,0,0-1.4.335.335,0,0,0-.295-.354,2.112,2.112,0,0,0-.606-.057h-3.374c-.168,0-.337,0-.5-.014-.086-.006-.186-.015-.223-.114a.722.722,0,0,1,0-.517.174.174,0,0,1,.171-.1c.177-.01.353-.027.53-.028.983,0,1.966,0,2.949-.007a2.073,2.073,0,0,0,.475-.043.3.3,0,0,0,.255-.266,2.9,2.9,0,0,0,.041-.529,6.3,6.3,0,0,0-.026-.875c-.032-.225-.1-.279-.319-.325a2.642,2.642,0,0,0-.529-.037c-.806,0-1.612,0-2.418-.005-.293,0-.585,0-.877-.005-.213,0-.264-.051-.294-.259a.921.921,0,0,1-.007-.185c.015-.27.092-.341.359-.341q1.846,0,3.693,0a3.735,3.735,0,0,0,.477-.026c.255-.034.308-.081.339-.327a7.462,7.462,0,0,0,.009-1.458c-.017-.243-.128-.333-.383-.358a5.235,5.235,0,0,0-.53-.022q-4.649,0-9.3,0c-.1,0-.195,0-.292.006-.239.016-.294.07-.315.3,0,.053,0,.106,0,.159v7.09c0,.489,0,.49.484.49Zm-31.768.147a18.011,18.011,0,0,0,3.724-.317,8.493,8.493,0,0,0,2.311-.752,3.207,3.207,0,0,0,1-.771,1.53,1.53,0,0,0-.1-2.111,2.845,2.845,0,0,0-.865-.557,9.984,9.984,0,0,0-2.279-.59c-.709-.1-1.427-.136-2.133-.267a4.453,4.453,0,0,1-.726-.149.233.233,0,0,1-.173-.211.239.239,0,0,1,.132-.24.929.929,0,0,1,.4-.139,7.694,7.694,0,0,1,2.274.09c.485.1.965.218,1.443.338a.484.484,0,0,0,.56-.189c.307-.411.619-.819.929-1.228a.938.938,0,0,0,.1-.156.288.288,0,0,0-.13-.426,1.438,1.438,0,0,0-.344-.136,13.573,13.573,0,0,0-1.928-.359,17.714,17.714,0,0,0-2.36-.117,14.441,14.441,0,0,0-4.171.533,6.31,6.31,0,0,0-2.01.931,2.218,2.218,0,0,0-.787,1.044,1.149,1.149,0,0,0,.2,1.17,2.437,2.437,0,0,0,.689.575,5.591,5.591,0,0,0,1.644.581,28.043,28.043,0,0,0,2.866.379,2.836,2.836,0,0,1,.936.165c.117.055.267.093.273.257.007.185-.156.218-.281.273a3.028,3.028,0,0,1-1.454.223,10.646,10.646,0,0,1-3.358-.716.373.373,0,0,0-.534.13c-.452.522-.89,1.056-1.3,1.612-.262.355-.245.39.2.5a22.118,22.118,0,0,0,2.932.468c.776.084,1.552.155,2.332.169Zm-32.957-8.282c-.534-.009-1.144.008-1.755.047a12.688,12.688,0,0,0-3.2.607,5.956,5.956,0,0,0-1.5.726,2.207,2.207,0,0,0-.869,1.075,1.22,1.22,0,0,0,.2,1.248,2.062,2.062,0,0,0,.7.563,6.426,6.426,0,0,0,2.167.672c.949.117,1.9.215,2.849.323a1.168,1.168,0,0,1,.546.191c.193.133.19.269-.011.385a1.882,1.882,0,0,1-.594.22,6.2,6.2,0,0,1-1.983-.029,11.03,11.03,0,0,1-2.457-.644c-.23-.088-.252-.084-.408.107-.448.549-.89,1.1-1.334,1.654a1.273,1.273,0,0,0-.133.2c-.069.13-.046.186.092.245a.824.824,0,0,0,.152.047c.372.078.743.162,1.117.228a30.9,30.9,0,0,0,3.428.387,17.544,17.544,0,0,0,5.013-.387,7.17,7.17,0,0,0,1.911-.7,2.8,2.8,0,0,0,1.039-.927,1.427,1.427,0,0,0-.241-1.9,3,3,0,0,0-.888-.571,8.373,8.373,0,0,0-1.626-.472c-.8-.164-1.616-.192-2.421-.32-.323-.051-.646-.1-.967-.165-.184-.036-.268-.117-.27-.246a.3.3,0,0,1,.226-.294,1.317,1.317,0,0,1,.358-.094,7.831,7.831,0,0,1,2.457.142c.38.083.757.179,1.135.273a.587.587,0,0,0,.692-.248c.264-.376.563-.728.837-1.1s.214-.588-.239-.745a2.347,2.347,0,0,0-.282-.074c-.147-.03-.3-.05-.443-.083A14.819,14.819,0,0,0,209.337,837.766Zm11.2.091v-.008h-2.6a3.094,3.094,0,0,0-.318.023c-.085.009-.192-.005-.225.1s.059.14.117.191c.192.17.381.344.581.507q2.124,1.725,4.255,3.442a.941.941,0,0,1,.4.814c-.019.814-.011,1.629,0,2.444.005.51.043.543.548.543q2.219,0,4.439-.007c.133,0,.266,0,.4-.016a.293.293,0,0,0,.289-.26,1.88,1.88,0,0,0,.034-.343c0-.752.011-1.505,0-2.258a1.083,1.083,0,0,1,.424-.922q2.2-1.8,4.379-3.626a1.212,1.212,0,0,0,.175-.162A.289.289,0,0,0,233.5,838c-.053-.115-.16-.127-.27-.129-.239-.005-.478-.015-.717-.015l-4.7-.006a.73.73,0,0,0-.6.282,16.729,16.729,0,0,0-1.229,1.5,1.223,1.223,0,0,1-.15.186c-.137.143-.189.15-.333.022a5.152,5.152,0,0,1-.492-.484c-.34-.4-.685-.789-1.025-1.185a.806.806,0,0,0-.649-.3c-.2,0-.408-.005-.611-.006h-2.179Zm38.159,0v.012h-5.819a.179.179,0,0,0-.2.174,1.424,1.424,0,0,0-.025.184c0,.629-.009,1.257,0,1.886.005.309.078.351.393.355.735.008,1.469-.068,2.2-.047a3.091,3.091,0,0,1,.476.039c.093.017.143.062.144.156s.005.177.005.266v2.39c0,.735,0,1.47.009,2.2.006.395.041.422.429.424q2.219.007,4.438.006a5.766,5.766,0,0,0,.61-.025c.231-.024.312-.108.34-.336a4.142,4.142,0,0,0,.019-.477c0-1.151,0-2.3,0-3.453a7.491,7.491,0,0,1,.054-.874c.032-.278.085-.327.374-.325.461,0,.921.016,1.381.024.31.005.62.023.929.009.371-.016.483-.142.5-.507,0-.035,0-.071,0-.106q0-.677,0-1.354a1.084,1.084,0,0,0-.032-.289c-.063-.219-.141-.3-.369-.316-.176-.016-.354-.02-.531-.021q-2.006,0-4.013,0Z" transform="translate(-197.991 -807.268)" fill="#707070"/>
    <path id="Path_8233" data-name="Path 8233" d="M2416.9,107.8a15.567,15.567,0,0,1,1.011-5.776,10.925,10.925,0,0,1,4.485-5.46,11.1,11.1,0,0,1,3.929-1.457,13,13,0,0,1,3.36-.156,10.975,10.975,0,0,1,6.323,2.462,11.233,11.233,0,0,1,3.1,4.247,14.332,14.332,0,0,1,1.131,4.534,19.359,19.359,0,0,1-.01,3.421,13.69,13.69,0,0,1-2.034,6.217,10.465,10.465,0,0,1-6.842,4.726,12.817,12.817,0,0,1-6.839-.331,10.22,10.22,0,0,1-6.29-5.749,14.489,14.489,0,0,1-1.122-3.967,19.54,19.54,0,0,1-.207-2.712Z" transform="translate(-2329.936 -94.208)" fill="#707070"/>
    <path id="Path_8234" data-name="Path 8234" d="M1511.564,123.738V112.29a2.93,2.93,0,0,1,.05-.66.25.25,0,0,1,.25-.227c.106-.006.213-.012.319-.012,2.985,0,5.97-.007,8.956,0a17.024,17.024,0,0,1,4.212.46,10.125,10.125,0,0,1,4.287,2.176,9.4,9.4,0,0,1,2.663,4.151,14.8,14.8,0,0,1,.589,2.717,20.176,20.176,0,0,1,.039,4.584,15.134,15.134,0,0,1-.993,4.354,9.256,9.256,0,0,1-3.373,4.3,10.654,10.654,0,0,1-3.565,1.521,15.867,15.867,0,0,1-3.449.385c-1.86.034-3.72.03-5.58.029q-1.953,0-3.906-.008c-.411,0-.452-.046-.482-.454-.016-.212-.021-.424-.021-.637V123.738Zm7.349-.036v5.5c0,.265.011.531.026.8s.053.29.3.291a17.556,17.556,0,0,0,1.938-.044,5.3,5.3,0,0,0,1.881-.518,4.26,4.26,0,0,0,2.018-2.336,9.417,9.417,0,0,0,.571-3.063,16.747,16.747,0,0,0-.1-2.836,7.048,7.048,0,0,0-.527-2.047,3.371,3.371,0,0,0-2.214-1.95c-.238-.07-.479-.122-.722-.17a15.134,15.134,0,0,0-2.913-.137c-.174,0-.22.048-.23.223-.016.256-.025.513-.025.77q0,2.76,0,5.52Z" transform="translate(-1459.906 -110.051)" fill="#707070"/>
    <path id="Path_8235" data-name="Path 8235" d="M876,119.555c0,2.258.023,4.516-.008,6.774a14.534,14.534,0,0,1-.837,4.841,7.7,7.7,0,0,1-3,3.914,9.284,9.284,0,0,1-3,1.248,17.747,17.747,0,0,1-4.669.394,14.579,14.579,0,0,1-3.566-.5,7.81,7.81,0,0,1-5.6-5.248,14.31,14.31,0,0,1-.7-3.393c-.092-1.014-.114-2.032-.114-3.051v-12.22a2.662,2.662,0,0,1,.059-.659.241.241,0,0,1,.234-.21c.115-.008.23-.016.345-.016h5.635c.292,0,.585.022.876.042.165.011.2.046.206.215.008.115.006.23.006.345V126.3a8.374,8.374,0,0,0,.255,2.209,3.432,3.432,0,0,0,.285.741,2.5,2.5,0,0,0,1.663,1.3,4.556,4.556,0,0,0,2.363,0,2.566,2.566,0,0,0,1.662-1.381,5.025,5.025,0,0,0,.457-1.6,14.439,14.439,0,0,0,.106-1.881q0-6.615,0-13.229a3.661,3.661,0,0,1,.054-.767c.039-.2.078-.231.281-.251.078-.008.159-.006.239-.006h5.874c.221,0,.442.02.663.039.185.017.231.065.236.251.007.23,0,.46,0,.69v7.146Z" transform="translate(-828.484 -110.087)" fill="#707070"/>
    <path id="Path_8236" data-name="Path 8236" d="M205.412,111.361c.789,0,1.577,0,2.366,0,.328,0,.655.017.982.028.281.009.354.06.443.327q.309.931.609,1.865l5.049,15.589q1.053,3.254,2.114,6.506c.09.278.067.306-.241.325-.761.046-1.521.046-2.284.039-.673-.007-1.346,0-2.019,0h-2.075c-.071,0-.142,0-.213,0a.413.413,0,0,1-.45-.323c-.186-.536-.312-1.087-.465-1.631-.083-.3-.167-.6-.257-.891-.1-.312-.188-.374-.514-.39-1.266-.059-2.535-.017-3.8-.027-.824-.007-1.648,0-2.472,0-.062,0-.124,0-.186,0-.275.012-.339.058-.41.323-.152.572-.3,1.146-.446,1.719q-.117.449-.243.9c-.071.25-.111.273-.369.292-.885.062-1.77.034-2.656.032-1.2,0-2.392,0-3.588,0a2.34,2.34,0,0,1-.291-.013c-.227-.029-.273-.086-.234-.317a4.085,4.085,0,0,1,.135-.54q.694-2.158,1.4-4.313,2.9-8.947,5.8-17.886c.139-.429.279-.858.442-1.278a.471.471,0,0,1,.5-.335c.744.006,1.488,0,2.233,0Zm-.134,8.052a.456.456,0,0,0-.153.266c-.068.238-.146.473-.208.713q-.828,3.208-1.65,6.417c-.048.188-.093.378-.126.569-.028.159.018.212.173.231a1.266,1.266,0,0,0,.159,0H206.9a1.613,1.613,0,0,0,.291-.018c.2-.036.265-.131.275-.332a1.4,1.4,0,0,0-.074-.416q-.383-1.461-.771-2.921-.537-2.011-1.083-4.018A.8.8,0,0,0,205.278,119.413Z" transform="translate(-193.495 -110.022)" fill="#707070"/>
    <path id="Path_8237" data-name="Path 8237" d="M2144.95,123.74v11.845c0,.435,0,.426-.436.461-.549.043-1.1.028-1.646.028q-2.365,0-4.73,0c-.458,0-.464,0-.522-.464a3.4,3.4,0,0,1-.024-.423q0-11.46,0-22.921a3.989,3.989,0,0,1,.06-.633.231.231,0,0,1,.248-.223c.106,0,.213-.01.319-.01h5.58c.3,0,.6.023.9.042.2.013.234.054.249.264q.012.2.012.4v11.633Z" transform="translate(-2061.52 -110.061)" fill="#707070"/>
    <path id="Path_8238" data-name="Path 8238" d="M242.21,1150.384h53.928a2.115,2.115,0,0,1,.945.214.587.587,0,0,1,.315.369,2.913,2.913,0,0,1,.152.854q.01.824,0,1.647a3.077,3.077,0,0,1-.12.807.91.91,0,0,1-.809.627,4.757,4.757,0,0,1-.924.051H188.374a4.178,4.178,0,0,1-.732-.091.827.827,0,0,1-.712-.858c-.018-.911-.013-1.824,0-2.736a.95.95,0,0,1,.777-.829,4.758,4.758,0,0,1,.763-.06Q215.339,1150.386,242.21,1150.384Zm54.786,4a.238.238,0,0,0,.026-.073q0-1.641-.007-3.284c.009-.055.014-.11-.068-.1-.115.007-.229.022-.344.022l-33.423,0a.918.918,0,0,1-.316-.019c-.088,0-.177-.011-.265-.011h-37.56a.888.888,0,0,0-.316.027.89.89,0,0,1-.317.016H188.263c-.2,0-.408,0-.611,0-.227.006-.244.02-.244.245q0,1.566,0,3.132v.009c0,.062.049.063.092.064h.372L225,1154.4q19.029,0,38.058.006h33.673A.489.489,0,0,0,297,1154.388Z" transform="translate(-186.93 -1108.517)" fill="#f1f1f0"/>
    <path id="Path_8239" data-name="Path 8239" d="M2844.579,1332.439h-.248c-.269,0-.269,0-.342-.28-.1-.019-.156.067-.227.11a1.5,1.5,0,0,1-1.2.175.73.73,0,0,1-.573-.624.787.787,0,0,1,.393-.832,1.914,1.914,0,0,1,.736-.2c.227-.035.453-.075.679-.114.113-.019.159-.078.153-.2a.465.465,0,0,0-.367-.487,1.211,1.211,0,0,0-.551-.023.5.5,0,0,0-.432.343c-.05.16-.14.179-.276.15-.078-.017-.156-.028-.252-.045a.886.886,0,0,1,.56-.745,1.924,1.924,0,0,1,1.224-.06.681.681,0,0,1,.573.726c.012.433.007.866.008,1.3A1.945,1.945,0,0,0,2844.579,1332.439Zm-.631-1.413a6.325,6.325,0,0,1-.858.179,1.283,1.283,0,0,0-.333.084.417.417,0,0,0-.114.7.52.52,0,0,0,.289.122.836.836,0,0,0,1.014-.841C2843.949,1331.2,2843.948,1331.129,2843.948,1331.026Z" transform="translate(-2738.436 -1280.687)" fill="#020202"/>
    <path id="Path_8240" data-name="Path 8240" d="M2948.687,1334.58c.129.007.225.015.323.015a.382.382,0,0,0,.244-.09.807.807,0,0,0,.213-.788c-.326-.867-.653-1.734-.986-2.616a1.269,1.269,0,0,1,.366-.029c.124-.019.171.047.207.151.217.624.438,1.248.657,1.875.017.05.035.1.055.154.06-.009.058-.059.068-.091.2-.624.44-1.231.663-1.846.088-.244.09-.245.351-.242a.379.379,0,0,1,.184.017c.034.075-.019.134-.043.2q-.533,1.44-1.07,2.881a2.332,2.332,0,0,1-.276.571.716.716,0,0,1-.766.3c-.117-.021-.172-.07-.173-.187C2948.7,1334.766,2948.692,1334.679,2948.687,1334.58Z" transform="translate(-2840.782 -1282.159)" fill="#020202"/>
    <path id="Path_8241" data-name="Path 8241" d="M2800.917,1307.721a.466.466,0,0,0-.1-.011c-.269.028-.216-.071-.225-.241-.005-.107.043-.131.142-.136.207-.01.207-.016.208-.223v-.053c0-.468,0-.468.479-.687v.687c0,.29-.042.281.261.28h.027c.2,0,.193,0,.2.21,0,.128-.039.165-.168.166-.317,0-.318.009-.317.325,0,.451.005.9,0,1.354,0,.279.074.419.366.375.1-.015.128.035.141.114.009.061.013.124.027.184.024.105-.026.151-.123.153a2.856,2.856,0,0,1-.424,0,.473.473,0,0,1-.438-.426,2.015,2.015,0,0,1-.026-.343c0-.487,0-.975,0-1.46A.6.6,0,0,0,2800.917,1307.721Z" transform="translate(-2698.66 -1258.424)" fill="#020202"/>
    <path id="Path_8242" data-name="Path 8242" d="M2772.368,1303.681c.507-.071.507-.071.507.4v3.26c0,.22.014.216-.218.214h-.051c-.292-.005-.253.039-.254-.251q0-1.7,0-3.393A.506.506,0,0,1,2772.368,1303.681Z" transform="translate(-2671.519 -1255.807)" fill="#020202"/>
    <path id="Path_8243" data-name="Path 8243" d="M2924.552,1307.809c-.466.046-.466.046-.466-.4v-3.261c0-.206-.053-.229.232-.227h.159c.065,0,.1.029.094.1v3.632A.3.3,0,0,1,2924.552,1307.809Z" transform="translate(-2817.336 -1256.074)" fill="#020202"/>
    <path id="Path_8244" data-name="Path 8244" d="M2400.314,864.934c-.1.153-.181.278-.268.4-.8,1.116-1.511,2.29-2.27,3.432-.049.074-.1.149-.147.221a.567.567,0,0,1-.5.256c-.771,0-1.541,0-2.312.008a2.993,2.993,0,0,0-.345.008.592.592,0,0,1-.617-.319c-.464-.754-.934-1.5-1.4-2.256-.177-.286-.348-.576-.519-.865a2.621,2.621,0,0,1-.306-.732c-.018-.075-.015-.18-.117-.181-.123,0-.111.117-.129.2-.12.526-.243,1.051-.356,1.578-.144.674-.279,1.351-.42,2.026a1.621,1.621,0,0,1-.048.179.418.418,0,0,1-.462.351q-.624.016-1.249.016h-3.614c-.053,0-.106-.005-.159-.009a.129.129,0,0,1-.13-.163,2.119,2.119,0,0,1,.078-.335q.937-2.9,1.878-5.8c.147-.454.292-.909.447-1.36.109-.323.182-.379.52-.379,1.745,0,3.49.007,5.235.009a.594.594,0,0,1,.5.251,1.792,1.792,0,0,1,.151.249c.372.7.749,1.4,1.112,2.114a14.976,14.976,0,0,0,.838,1.414c.01.015.017.032.027.046.092.124.167.117.227-.018.021-.048.035-.1.052-.151a5.683,5.683,0,0,1,.483-1.031c.5-.858,1-1.711,1.492-2.571a.554.554,0,0,1,.51-.317c.31,0,.62,0,.93,0h3.481c.273,0,.549.015.823.013a.461.461,0,0,1,.479.341c.171.5.344,1,.511,1.507q.876,2.643,1.747,5.288a2.93,2.93,0,0,1,.127.459c.045.3-.051.409-.351.429q-.292.018-.585.017-2.086,0-4.173-.006c-.312,0-.318-.007-.407-.3-.142-.468-.172-.957-.273-1.432-.164-.761-.262-1.534-.421-2.3C2400.375,865.137,2400.348,865.056,2400.314,864.934Z" transform="translate(-2299.233 -830.614)" fill="#fefefe"/>
    <path id="Path_8245" data-name="Path 8245" d="M2003.907,869.342h-4.942c-.479,0-.484,0-.484-.49q0-3.545,0-7.09c0-.053,0-.106,0-.159.022-.232.078-.286.315-.3.1-.007.195-.006.292-.006h9.3a5.235,5.235,0,0,1,.53.022c.254.026.366.117.383.359a7.459,7.459,0,0,1-.009,1.458c-.031.246-.084.292-.339.327a3.726,3.726,0,0,1-.477.026q-1.846,0-3.693,0c-.266,0-.344.072-.359.341a.922.922,0,0,0,.007.185c.031.208.081.255.294.259.292.005.585.005.877.005.806,0,1.612,0,2.418.005a2.65,2.65,0,0,1,.529.037c.224.046.288.1.319.325a6.652,6.652,0,0,1,.026.875,2.893,2.893,0,0,1-.041.528.3.3,0,0,1-.255.266,2.068,2.068,0,0,1-.475.043c-.983,0-1.966,0-2.949.007-.177,0-.353.018-.53.028a.174.174,0,0,0-.171.1.721.721,0,0,0,0,.517c.037.1.137.108.223.114.168.012.336.014.5.014h3.374a2.111,2.111,0,0,1,.606.057.334.334,0,0,1,.295.354,9.2,9.2,0,0,1,0,1.4c-.023.273-.107.359-.387.367-.5.014-.991.017-1.487.018q-1.847,0-3.693,0Z" transform="translate(-1927.835 -830.708)" fill="#fefefe"/>
    <path id="Path_8246" data-name="Path 8246" d="M1184.412,867.245c-.78-.015-1.556-.085-2.331-.165a22.4,22.4,0,0,1-2.932-.468c-.44-.106-.456-.14-.195-.5.41-.556.847-1.092,1.3-1.612a.371.371,0,0,1,.534-.13,10.645,10.645,0,0,0,3.358.716,3.027,3.027,0,0,0,1.455-.223c.123-.057.288-.09.281-.273-.007-.164-.156-.2-.273-.257a2.828,2.828,0,0,0-.936-.165,28.067,28.067,0,0,1-2.866-.379,5.612,5.612,0,0,1-1.644-.581,2.421,2.421,0,0,1-.689-.575,1.15,1.15,0,0,1-.2-1.17,2.218,2.218,0,0,1,.788-1.044,6.29,6.29,0,0,1,2.01-.931,14.473,14.473,0,0,1,4.171-.533,17.725,17.725,0,0,1,2.36.117,13.644,13.644,0,0,1,1.928.359,1.438,1.438,0,0,1,.344.136.288.288,0,0,1,.13.426.925.925,0,0,1-.1.156c-.309.41-.622.819-.928,1.228a.485.485,0,0,1-.56.189c-.48-.12-.96-.241-1.443-.338a7.691,7.691,0,0,0-2.274-.09.926.926,0,0,0-.4.139.24.24,0,0,0-.132.24.233.233,0,0,0,.173.211,4.419,4.419,0,0,0,.726.149c.706.131,1.423.167,2.133.267a9.992,9.992,0,0,1,2.279.59,2.846,2.846,0,0,1,.865.557,1.53,1.53,0,0,1,.1,2.111,3.209,3.209,0,0,1-1,.771,8.5,8.5,0,0,1-2.312.752A18.01,18.01,0,0,1,1184.412,867.245Z" transform="translate(-1140.109 -828.464)" fill="#fefefe"/>
    <path id="Path_8247" data-name="Path 8247" d="M285.326,858.925a15.1,15.1,0,0,1,3.291.342c.147.033.3.053.443.083a2.335,2.335,0,0,1,.282.074c.453.156.523.362.239.745s-.573.721-.837,1.1a.587.587,0,0,1-.691.248c-.378-.092-.755-.188-1.135-.273a7.831,7.831,0,0,0-2.457-.142,1.319,1.319,0,0,0-.358.094.3.3,0,0,0-.226.294c0,.128.085.211.27.246.321.061.644.114.967.165.8.128,1.621.156,2.421.32a8.376,8.376,0,0,1,1.626.472,3,3,0,0,1,.888.571,1.426,1.426,0,0,1,.241,1.9,2.79,2.79,0,0,1-1.039.928,7.152,7.152,0,0,1-1.911.7,17.544,17.544,0,0,1-5.013.387,30.945,30.945,0,0,1-3.428-.387c-.374-.066-.745-.15-1.117-.228a.833.833,0,0,1-.152-.047c-.137-.059-.16-.117-.092-.245a1.265,1.265,0,0,1,.133-.2c.443-.553.886-1.105,1.334-1.654.156-.191.178-.195.408-.107a11.027,11.027,0,0,0,2.457.644,6.193,6.193,0,0,0,1.983.029,1.881,1.881,0,0,0,.594-.22c.2-.117.2-.251.011-.385a1.168,1.168,0,0,0-.546-.191c-.95-.108-1.9-.205-2.849-.323a6.425,6.425,0,0,1-2.167-.672,2.062,2.062,0,0,1-.7-.563,1.223,1.223,0,0,1-.195-1.248,2.213,2.213,0,0,1,.869-1.075,5.953,5.953,0,0,1,1.5-.726,12.685,12.685,0,0,1,3.2-.607C284.181,858.932,284.791,858.914,285.326,858.925Z" transform="translate(-273.979 -828.427)" fill="#fefefe"/>
    <path id="Path_8248" data-name="Path 8248" d="M687.529,861.04h2.18c.2,0,.408.008.611.006a.806.806,0,0,1,.649.3c.34.4.685.789,1.025,1.185a5.139,5.139,0,0,0,.492.484c.143.128.2.122.333-.022a1.224,1.224,0,0,0,.15-.186,16.711,16.711,0,0,1,1.229-1.5.73.73,0,0,1,.6-.282q2.352.005,4.7.006c.239,0,.478.01.717.015.11,0,.216.014.27.129a.289.289,0,0,1-.074.317,1.216,1.216,0,0,1-.175.162q-2.189,1.814-4.381,3.624a1.088,1.088,0,0,0-.424.922c.013.752,0,1.506,0,2.258a1.883,1.883,0,0,1-.034.343.292.292,0,0,1-.289.26c-.132.012-.266.016-.4.016q-2.219.005-4.439.007c-.505,0-.543-.032-.548-.543-.008-.814-.016-1.63,0-2.444a.941.941,0,0,0-.4-.814q-2.134-1.712-4.255-3.442c-.2-.162-.39-.335-.581-.507-.058-.051-.146-.1-.117-.191s.14-.089.225-.1a3.111,3.111,0,0,1,.318-.023q1.3,0,2.6,0Z" transform="translate(-664.984 -830.453)" fill="#fefefe"/>
    <path id="Path_8249" data-name="Path 8249" d="M1594.771,861.29h5.341c.177,0,.355,0,.531.021.228.021.306.1.369.316a1.079,1.079,0,0,1,.032.289q0,.677,0,1.354c0,.036,0,.071,0,.107-.02.367-.131.493-.5.507-.309.013-.619,0-.929-.009-.461-.008-.921-.02-1.382-.024-.29,0-.343.047-.374.325a7.464,7.464,0,0,0-.054.874q.007,1.727,0,3.453a4.149,4.149,0,0,1-.019.477c-.027.228-.109.312-.34.336a5.781,5.781,0,0,1-.61.025q-2.219,0-4.438-.006c-.39,0-.425-.029-.429-.424-.011-.735-.008-1.47-.009-2.2v-2.39c0-.089,0-.177-.005-.266s-.051-.141-.144-.156a3.083,3.083,0,0,0-.476-.039c-.736-.021-1.469.055-2.2.047-.315,0-.388-.046-.393-.355-.012-.628,0-1.257,0-1.886a1.374,1.374,0,0,1,.025-.184.178.178,0,0,1,.195-.174h5.819Z" transform="translate(-1534.067 -830.703)" fill="#fefefe"/>
    <path id="Path_8250" data-name="Path 8250" d="M1156.19,1164.107a.86.86,0,0,1,.315-.027h37.56c.088,0,.177.007.265.011l-.014.147a.55.55,0,0,0-.019.1q0,1.542,0,3.085a.022.022,0,0,0-.013.012.022.022,0,0,0,0,.017l-.143-.033c-.035-.052-.071-.052-.106,0a.727.727,0,0,1-.289.021h-37.165a.74.74,0,0,1-.289-.021l-.047-.048a.908.908,0,0,1-.016-.288v-2.613A1.1,1.1,0,0,0,1156.19,1164.107Z" transform="translate(-1118.397 -1121.681)" fill="#fefefe"/>
    <path id="Path_8251" data-name="Path 8251" d="M236.777,1164.82a1.093,1.093,0,0,1,.044.364q0,1.307,0,2.613a.9.9,0,0,0,.016.288c0,.018-.005.036-.008.054l-.026.025c-.088-.005-.176-.015-.264-.015l-36.686,0a.962.962,0,0,0-.388.068c0-1.044,0-2.089,0-3.133,0-.225.018-.239.244-.245.2-.005.407,0,.611,0H236.46A1.1,1.1,0,0,0,236.777,1164.82Z" transform="translate(-198.984 -1122.395)" fill="#707070"/>
    <path id="Path_8252" data-name="Path 8252" d="M2133.71,1164.53l.014-.147a.914.914,0,0,0,.316.019q16.712,0,33.424,0c.115,0,.229-.015.344-.022.083-.005.078.049.068.1a.851.851,0,0,0-.107.557c-.007.743,0,1.487,0,2.23,0,.449.047.468-.461.468h-31.4a.84.84,0,0,1-.29-.019,6.49,6.49,0,0,0,.051-1.156v-1.586a1.45,1.45,0,0,0-.007-.211.188.188,0,0,0-.21-.187c-.492.013-.98-.088-1.474-.053C2133.887,1164.536,2133.8,1164.53,2133.71,1164.53Z" transform="translate(-2057.791 -1121.973)" fill="#707070"/>
    <path id="Path_8253" data-name="Path 8253" d="M237,1249.79a.725.725,0,0,0,.289.021h37.165a.746.746,0,0,0,.289-.021.082.082,0,0,0,.106,0l.143.033c.082.146.222.078.333.078q16.763.005,33.526,0a.963.963,0,0,1,.316.017.522.522,0,0,1-.261.021H275.231q-19.029,0-38.058-.006-18.564,0-37.127.009h-.372c-.044,0-.09,0-.092-.064.186,0,.372.013.558.013h36.486c.078,0,.16,0,.239,0,.044,0,.058-.03.054-.071l.026-.025Z" transform="translate(-199.098 -1204.05)" fill="#707070"/>
    <path id="Path_8254" data-name="Path 8254" d="M2167.125,1170.408a.956.956,0,0,0-.316-.017q-16.763,0-33.526,0c-.111,0-.251.069-.333-.078a.022.022,0,0,1,0-.017.023.023,0,0,1,.013-.012,18.728,18.728,0,0,0,1.918.006.845.845,0,0,0,.29.019h31.4c.507,0,.461-.02.461-.468,0-.743,0-1.487,0-2.23a.848.848,0,0,1,.107-.557q0,1.643.008,3.285A.244.244,0,0,1,2167.125,1170.408Z" transform="translate(-2057.059 -1124.538)" fill="#020202"/>
    <path id="Path_8255" data-name="Path 8255" d="M236.917,1250.174c0,.039-.01.07-.054.071-.078,0-.16,0-.239,0H200.138c-.186,0-.372-.009-.558-.013v-.008a.964.964,0,0,1,.388-.068l36.686,0C236.741,1250.159,236.829,1250.169,236.917,1250.174Z" transform="translate(-199.098 -1204.403)" fill="#020202"/>
    <path id="Path_8256" data-name="Path 8256" d="M2994.322,94.044a3.1,3.1,0,0,1,.463.7.221.221,0,0,1-.314-.089c-.084-.135-.168-.27-.256-.4a.454.454,0,0,0-.216-.188c-.293-.112-.414-.035-.423.279,0,.1,0,.2,0,.292,0,.08-.022.142-.117.137s-.089-.072-.089-.135v-.69c0-.221,0-.442,0-.663,0-.122.048-.178.174-.175.23.006.46,0,.69.01a.431.431,0,0,1,.459.359.442.442,0,0,1-.283.485C2994.376,93.976,2994.336,93.977,2994.322,94.044Zm-.362-.23h.132a.992.992,0,0,0,.132-.007c.152-.025.229-.108.227-.242s-.078-.216-.234-.23c-.14-.012-.281-.008-.422-.006-.2,0-.208.011-.216.206-.012.262.007.28.277.279Z" transform="translate(-2883.921 -92.482)" fill="#020202"/>
    <path id="Path_8257" data-name="Path 8257" d="M2135.659,1171.323c-.811.022-1.623.041-2.433-.006q0-1.61-.006-3.219a.481.481,0,0,1,.024-.107c.112,0,.224.007.335,0,.626-.036,1.246.069,1.87.055.172,0,.244.074.267.2a1.3,1.3,0,0,1,.008.22v1.655A5.583,5.583,0,0,1,2135.659,1171.323Z" transform="translate(-2057.32 -1125.574)" fill="#707070"/>
    <path id="Path_8258" data-name="Path 8258" d="M2126.716,1248.81a.081.081,0,0,1-.106,0C2126.646,1248.757,2126.682,1248.757,2126.716,1248.81Z" transform="translate(-2050.968 -1203.07)" fill="#f1f1f0"/>
    <path id="Path_8259" data-name="Path 8259" d="M1157.575,1248.608l-.055.006c0-.018.005-.036.008-.054Z" transform="translate(-1119.675 -1202.868)" fill="#f1f1f0"/>
  </g>
</svg>
