<svg id="zapco" xmlns="http://www.w3.org/2000/svg" width="134.325" height="58.389" viewBox="0 0 134.325 58.389">
  <path id="Path_8205" data-name="Path 8205" d="M653.187,60.88l10.273,2.6c1.692.427,1.693.423,1.984,2.043,1.579,0,3.188-.123,4.768.032a44.752,44.752,0,0,1,5.572.978c.293.068.426.836.743,1.516l-3.555-.323v1.7h3.216c.025.488.047.914.076,1.461l-3.309.572V73.2l3.163-.8c.313.9.22,1.525-.8,1.778-.394.1-.75.354-1.143.444-1.2.272-1.55.973-1.114,2.218l3.08-1.55c.272.872.161,1.5-.664,1.918a6.756,6.756,0,0,0-1.486.989,23.31,23.31,0,0,0-1.615,1.832h-5a29.205,29.205,0,0,1,2.995-1.63c1.273-.51,1.7-1.315,1.232-2.776l-7.522-.494v.48l1.215-.13c0,.809.019,1.608-.014,2.4a.987.987,0,0,1-.307.53c-.414.449-.852.879-1.28,1.316l.186.474a15.014,15.014,0,0,0-2.043-.337c-.57-.019-1.146.233-1.721.243-1.865.035-3.733.069-5.6,0a4.542,4.542,0,0,0-4.542,2.405c-1.331-2.393-3.485-2.47-5.748-2.409-2.648.072-5.3-.088-7.946.039-4.866.234-9.55-.958-14.293-1.672-6.3-.942-12.576-2.017-18.861-3.039-.4-.065-.792-.158-1.234-.247V73.014c2.151.239,4.242.464,6.333.706Q618.39,74.9,628.55,76.086q9.33,1.088,18.656,2.181a28.243,28.243,0,0,0,4.55.46,26.476,26.476,0,0,0,4.787-.889c1.556-.371,3.077-.889,4.627-1.292.569-.148.806-.4.773-1-.044-.775-.011-1.555-.011-2.481-1.928.279-3.781.423-5.572.836-3.239.743-6.46.31-9.689.093q-10.772-.73-21.538-1.5-10.264-.727-20.523-1.486c-.334-.024-.671-.04-1.006-.055-1.958-.086-2.077-.257-1.585-2.339,19.922.27,39.845,1.287,59.852,1.2V66.463c-2.5-.3-4.965-.77-7.443-.842-4.542-.133-9.092-.081-13.637-.011-7.8.12-15.589.308-23.384.476-4.847.1-9.692.228-14.539.341-.29.007-.579,0-.947,0V64.212c1.878-.138,3.757-.288,5.639-.412q9.879-.65,19.759-1.291c6.252-.4,12.505-.784,18.759-1.193,1.627-.107,3.25-.289,4.875-.436Zm18.536,6.762h-7.631v1.8h7.631Zm-.006,3.9h-6.355c-.037.279-.081.6-.123.908l-1.189.441.044.251,7.622.412Z" transform="translate(-570.801 -60.88)" fill="#707070"/>
  <path id="Path_8206" data-name="Path 8206" d="M1449.73,283.68c-.856,2.223-2.5,2.956-4.829,2.917-5.967-.1-11.935-.032-17.9-.034-3.032,0-4.365-1.326-4.377-4.336,0-1.193-.034-2.388.006-3.58a3.462,3.462,0,0,1,3.5-3.479c6.677-.031,13.353-.009,20.03-.018,1.891,0,2.814,1.243,3.58,2.709Zm-13.591-.23c1.974,0,3.949.015,5.924-.007a1.643,1.643,0,0,0,1.808-1.7c.035-.445.014-.894.008-1.341-.022-1.621-.542-2.152-2.136-2.155q-5.086-.011-10.173,0c-3.017,0-3.208.2-3.133,3.256.034,1.383.589,1.935,2,1.945,1.9.012,3.8,0,5.7,0Z" transform="translate(-1315.407 -255.252)" fill="#707070"/>
  <path id="Path_8207" data-name="Path 8207" d="M268.25,275.43h23.8a10.726,10.726,0,0,1-.038,2.07,1.475,1.475,0,0,1-.819.85c-3.055,1.28-6.129,2.512-9.2,3.76a1.341,1.341,0,0,0-.671.5H292v4.234H268.25v-2.687l10.6-4.263-.059-.214H268.25Z" transform="translate(-268.25 -255.506)" fill="#707070"/>
  <path id="Path_8208" data-name="Path 8208" d="M667.125,395.318c-1.393,1.653-2.675,3.179-3.957,4.708-1.486,1.771-2.982,3.534-4.442,5.327a1.012,1.012,0,0,1-1.413.353q-21.129-9.174-42.278-18.3a2.054,2.054,0,0,1-.891-.628c1.922,0,3.85-.08,5.763.049.571.039,1.085.7,1.656,1.013a6.086,6.086,0,0,0,1.455.616,24.892,24.892,0,0,1,2.908.607q15.657,6.009,31.276,12.114a1.238,1.238,0,0,0,1.624-.355q3.9-4.24,7.872-8.408c1.065-1.114.279-2.4.617-3.566l-.257-.132-4.938,4.6c-1.114,1.044-2.243,2.078-3.333,3.149a1.262,1.262,0,0,1-1.491.312q-11.465-3.954-22.95-7.857a1.173,1.173,0,0,1-.593-.416H638.5c.042-.627.076-1.134.12-1.782,1.436.416,2.815.808,4.189,1.217,4.785,1.421,9.573,2.833,14.348,4.289a1.538,1.538,0,0,0,1.79-.387c.279-.3.692-.472.945-.782,2.5-3.065,5.89-2.78,9.445-2.472,0,1.233.007,2.487,0,3.74-.014,2.125.411,4.387-.186,6.336-.582,1.908-2.2,3.5-3.378,5.226-2.351,3.452-4.722,6.891-7.052,10.356-.4.6-.711.788-1.419.418q-24.556-12.888-49.134-25.734c-.163-.085-.319-.18-.517-.292.318-.154.677-.214.836-.424.772-1.021,1.544-.681,2.494-.225q23.393,11.214,46.814,22.365a2.187,2.187,0,0,0,.3.079c.164-.18.376-.377.548-.6,2.406-3.181,4.73-6.428,7.244-9.522A5.549,5.549,0,0,0,667.125,395.318Z" transform="translate(-576.131 -356.461)" fill="#707070"/>
  <path id="Path_8209" data-name="Path 8209" d="M862.255,284.208v2.347H855v-11.3c.364-.017.755-.05,1.147-.05q9.565-.006,19.137,0c2.693,0,4.051,1.364,4.057,4.056,0,.448.008.9-.015,1.342a3.458,3.458,0,0,1-3.72,3.6c-3.993.028-7.986.011-11.974.013Zm-.94-5.643V281.1c3.239,0,6.4.021,9.565-.016.758-.008,1.1-.565,1.082-1.3a1.1,1.1,0,0,0-1.167-1.212C867.667,278.556,864.537,278.564,861.315,278.564Z" transform="translate(-800.511 -255.297)" fill="#707070"/>
  <path id="Path_8210" data-name="Path 8210" d="M1150.686,282.34a3.584,3.584,0,0,1-3.677,4.259q-9.79.018-19.584,0a3.6,3.6,0,0,1-3.77-3.7q-.043-2.013,0-4.029a3.535,3.535,0,0,1,3.656-3.683q9.9-.03,19.808,0c2.341.007,3.79,1.707,3.588,4.258-1.877,0-3.767,0-5.658-.007-.139,0-.361-.048-.4-.14-.608-1.29-1.777-1.022-2.831-1.022q-5.148-.016-10.3,0c-1.569,0-2.043.5-2.054,2.1,0,.371,0,.743.006,1.119.025,1.509.512,2,2.03,2,3.73,0,7.462.037,11.19-.035a5.222,5.222,0,0,0,1.819-.774c.186-.086.344-.323.517-.325C1146.916,282.332,1148.809,282.34,1150.686,282.34Z" transform="translate(-1044.199 -255.27)" fill="#707070"/>
  <path id="Path_8211" data-name="Path 8211" d="M560.111,286.382c-2.34,0-4.68.02-7.019-.024a1.43,1.43,0,0,1-.922-.524A3.548,3.548,0,0,0,549,284.642c-2.532.081-5.069.07-7.6.006a2.626,2.626,0,0,0-2.36.939,2.266,2.266,0,0,1-2.065.813c-2.043-.042-4.086-.014-6.129-.014a2.2,2.2,0,0,1,.69-2.549c3.008-2.726,5.943-5.529,8.948-8.265a2.45,2.45,0,0,1,1.46-.592c2.31-.062,4.623-.071,6.931,0a2.809,2.809,0,0,1,1.648.68c2.953,2.677,5.837,5.43,8.792,8.1A2.239,2.239,0,0,1,560.111,286.382Zm-10.781-4.574-3.906-3.605-3.834,3.605Z" transform="translate(-506.324 -255.052)" fill="#707070"/>
  <path id="Path_8212" data-name="Path 8212" d="M751.294,269.318v3.1a12.868,12.868,0,0,1-9.764-5.108Z" transform="translate(-697.579 -248.14)" fill="#707070"/>
  <path id="Path_8213" data-name="Path 8213" d="M1200.1,315.892v3.779h-2c-.041-.618-.081-1.223-.131-1.988-.912.605-1.7,1.134-2.5,1.659-.929.611-2.136.557-2.507-.111a2.035,2.035,0,0,1,.859-2.677,12.071,12.071,0,0,1,2.972-.636C1197.9,315.809,1199.017,315.892,1200.1,315.892Z" transform="translate(-1106.902 -292.182)" fill="#707070"/>
  <path id="Path_8214" data-name="Path 8214" d="M602.126,238.88l12.119,2.507-.031.2c-2.6,0-5.2.007-7.8,0a15.264,15.264,0,0,1-2.822-.1C601.726,241.134,601.7,241.021,602.126,238.88Z" transform="translate(-570.918 -222.35)" fill="#707070"/>
  <path id="Path_8215" data-name="Path 8215" d="M1083.156,368.846l-4.835-1.244,3.446-1.522Z" transform="translate(-1003.092 -337.737)" fill="#707070"/>
  <path id="Path_8216" data-name="Path 8216" d="M1377.54,249.012l2.3-1.842C1380.138,248.974,1379.652,249.383,1377.54,249.012Z" transform="translate(-1274.525 -229.87)" fill="#707070"/>
  <path id="Path_8217" data-name="Path 8217" d="M1357.24,330.765h-.96V329.41h1.3C1357.467,329.86,1357.357,330.3,1357.24,330.765Z" transform="translate(-1255.24 -304.473)" fill="#707070"/>
  <path id="Path_8218" data-name="Path 8218" d="M1379.27,329.07c-.445.819-.736,1.628-1.95,1.274C1377.8,329.64,1378.04,328.785,1379.27,329.07Z" transform="translate(-1274.325 -304.113)" fill="#707070"/>
  <path id="Path_8219" data-name="Path 8219" d="M930.47,319.52v-1.038c3.11-.022,6.163-.279,9.082,1.034Z" transform="translate(-868.973 -294.528)" fill="#707070"/>
  <path id="Path_8220" data-name="Path 8220" d="M673.31,321.824l1.5-1.4,1.867,1.764-.142.362Z" transform="translate(-635.694 -296.318)" fill="#707070"/>
</svg>
