<svg xmlns="http://www.w3.org/2000/svg" width="52" height="50.438" viewBox="0 0 52 50.438">
  <g id="support_agent_black_24dp" transform="translate(-17.116 -19.498)">
    <path id="Path_69" data-name="Path 69" d="M51.4,27.017C51.4,12.716,40.324,3,28,3,15.806,3,4.6,12.508,4.6,27.174A5.127,5.127,0,0,0,2,31.654v5.21a5.22,5.22,0,0,0,5.2,5.21H9.8V26.184a18.2,18.2,0,1,1,36.4,0V44.679H25.4v5.21H46.2a5.22,5.22,0,0,0,5.2-5.21V41.5A4.817,4.817,0,0,0,54,37.229V31.237A4.8,4.8,0,0,0,51.4,27.017Z" transform="translate(15.116 16.498)" fill="#707070"/>
    <circle id="Ellipse_3" data-name="Ellipse 3" cx="2.437" cy="2.437" r="2.437" transform="translate(32.902 43.161)" fill="#bfbebe"/>
    <circle id="Ellipse_4" data-name="Ellipse 4" cx="2.437" cy="2.437" r="2.437" transform="translate(48.643 43.161)" fill="#bfbebe"/>
    <path id="Path_70" data-name="Path 70" d="M37.7,18.759A15.786,15.786,0,0,0,21.977,6C13.971,6,5.357,12.367,6.044,22.361A20.705,20.705,0,0,0,18.886,7.421,21.326,21.326,0,0,0,37.7,18.759Z" transform="translate(21.271 21.393)" fill="#bfbebe"/>
    <text id="_24" data-name="24" transform="translate(40.786 62.936)" fill="#707070" font-size="11" font-family="Dana-ExtraBold, Dana" font-weight="800">
      <tspan x="-15.246" y="0">24</tspan>
    </text>
  </g>
</svg>
