<?xml version="1.0" encoding="utf-8"?>
<!-- Generator: Adobe Illustrator 24.0.1, SVG Export Plug-In . SVG Version: 6.00 Build 0)  -->
<svg version="1.1" id="Layer_1" xmlns="http://www.w3.org/2000/svg" xmlns:xlink="http://www.w3.org/1999/xlink" x="0px" y="0px"
	 viewBox="0 0 70 22" style="enable-background:new 0 0 70 22;" xml:space="preserve">
<style type="text/css">
	.st0{fill:#373435;}
</style>
<g>
	<g id="Layer_1_1_">
		<g id="XMLID_225_">
			<g id="XMLID_162_">
				<path id="XMLID_163_" class="st0" d="M26.25,6.94c-0.13-0.02-0.28-0.02-0.43-0.02c-1.1,0-1.99,0.76-2.57,1.83H23.2
					c0.07-0.56,0.1-1.1,0.15-1.65h-2.05c-0.08,0.69-0.18,2.04-0.43,3.26l-0.89,4.8h2.36l0.58-3c0.3-1.58,1-2.93,2.5-2.93
					c0.15,0,0.28,0.02,0.38,0.03L26.25,6.94z M25.43,12.54c0,1.7,0.99,2.8,2.44,2.8c0.94,0,1.96-0.45,2.7-1.78h0.05
					c-0.05,0.58-0.1,1.14-0.11,1.6h2.18c-0.02-1,0.13-2.59,0.33-3.63l0.86-4.22c-0.68-0.21-1.71-0.39-2.67-0.39
					C27.22,6.92,25.43,9.82,25.43,12.54z M30.81,10.64c-0.39,1.96-1.23,2.79-1.94,2.79c-0.66,0-0.99-0.54-0.99-1.34
					c0-1.5,1.12-3.38,2.65-3.38c0.25,0,0.48,0.02,0.66,0.07L30.81,10.64z M40.75,3.46l-0.69,3.66c-0.34-0.13-0.77-0.2-1.1-0.2
					c-3.05,0-5.06,2.57-5.06,5.38c0,1.94,1.1,3.03,2.49,3.03c0.94,0,1.93-0.41,2.63-1.48h0.03l-0.11,1.3h2.18
					c0.03-0.94,0.18-2.09,0.38-3.13l1.63-8.57H40.75L40.75,3.46z M39.3,11.17c-0.31,1.53-1.15,2.25-1.84,2.25
					c-0.68,0-1.1-0.54-1.1-1.52c0-1.55,1-3.18,2.42-3.18c0.39,0,0.76,0.11,0.94,0.26L39.3,11.17z M46.52,13.43
					c-0.89,0-1.58-0.54-1.58-1.68c0-1.5,1.06-2.93,2.72-2.93c0.5,0,0.81,0.08,1.1,0.21l0.58-1.83c-0.36-0.15-0.95-0.28-1.63-0.28
					c-3.06,0-5.25,2.24-5.25,5.11c0,2.09,1.4,3.31,3.39,3.31c0.95,0,1.76-0.18,2.29-0.43l-0.02-1.83
					C47.71,13.26,47.2,13.43,46.52,13.43z M53.58,6.92c-2.87,0-4.83,2.31-4.83,5.09c0,2.01,1.38,3.33,3.43,3.33
					c2.79,0,4.81-2.16,4.81-5.11C56.98,8.39,55.73,6.92,53.58,6.92z M52.51,13.53c-0.81,0-1.28-0.63-1.28-1.58
					c-0.02-1.23,0.68-3.21,2.04-3.21c0.95,0,1.27,0.77,1.27,1.53C54.53,11.62,53.81,13.53,52.51,13.53z M67.79,6.92
					c-1.06,0-2.06,0.48-2.79,1.52c-0.07-0.71-0.63-1.52-1.91-1.52c-1.04,0-2.01,0.45-2.75,1.48h-0.03l0.15-1.3h-2.04
					c-0.1,0.73-0.21,1.6-0.43,2.62L57,15.16h2.31l0.64-3.63c0.3-1.6,1.14-2.72,1.94-2.72c0.58,0,0.76,0.45,0.76,0.99
					c0,0.28-0.05,0.61-0.11,0.92l-0.82,4.43h2.27l0.69-3.64c0.3-1.63,1.09-2.7,1.9-2.7c0.54,0,0.77,0.39,0.77,0.95
					c0,0.31-0.05,0.66-0.1,0.99l-0.81,4.4h2.31l0.86-4.68c0.08-0.41,0.15-1.07,0.15-1.4C69.75,7.72,69.03,6.92,67.79,6.92z"/>
			</g>
		</g>
		<g>
			<g>
				<path class="st0" d="M12.49,0.32c-0.52,2.01-4.49,1.5-6.35,2.19c-3.68,1.38-7.37,6.2-5.26,11.46c0.41,1.02,0.97,2.16,1.81,2.76
					c0.81,0.59,1.7,0.13,2.26-0.33c1.28-1.05,2.24-2.4,2.55-4.43C7.87,9.59,6.04,8.3,4.27,9.64C3.96,9.1,3.64,8.55,3.33,8.01
					C6.75,8.02,14.35,4.43,12.49,0.32z M7.42,6.18C6.19,6.89,4.45,4.26,6.14,3.73C7.28,3.71,8.55,5.53,7.42,6.18z"/>
			</g>
		</g>
	</g>
	<g id="Layer_2_1_">
		<path class="st0" d="M13.1,4.84c3.2-0.02,3.83,4.74,2.95,7.69c-0.89,2.97-2.91,4.93-5.69,6.02C8.7,19.2,5.11,19.7,4.96,21.68
			c-0.11-0.26-0.21-0.53-0.32-0.79c-0.46-1.34-0.05-2.44,0.56-3.31c1.4-1.96,5.02-5.21,8.47-3.79c-0.09-0.63-0.18-1.26-0.27-1.9
			c-0.01,0-0.02-0.01-0.02-0.01c-2.3,1.05-4.49-1.25-3.95-3.58C9.86,6.43,11.21,5.29,13.1,4.84z"/>
	</g>
</g>
</svg>
