<svg xmlns="http://www.w3.org/2000/svg" width="50.445" height="48.152" viewBox="0 0 50.445 48.152">
  <g id="verified_black_24dp" transform="translate(-13.978 -15.33)">
    <path id="Path_79" data-name="Path 79" d="M51.445,25.553l-5.595-6.4.78-8.461-8.278-1.88L34.019,1.5l-7.8,3.348L18.427,1.5,14.093,8.815,5.815,10.672l.78,8.484L1,25.553l5.595,6.4-.78,8.484,8.278,1.88,4.334,7.338,7.8-3.371,7.8,3.348,4.334-7.315,8.278-1.88-.78-8.461Zm-9.057,3.394L41.1,30.437l.183,1.949.413,4.471-4.357.986-1.926.436-1.009,1.7-2.27,3.852-4.081-1.766-1.834-.78-1.811.78L20.33,43.828,18.06,40l-1.009-1.7-1.926-.436-4.357-.986.413-4.494.183-1.949-1.284-1.49L7.122,25.576l2.958-3.394,1.284-1.49-.206-1.972-.413-4.448,4.357-.986,1.926-.436,1.009-1.7L20.307,7.3l4.081,1.766,1.834.78,1.811-.78L32.116,7.3l2.27,3.852,1.009,1.7,1.926.436,4.357.986-.413,4.471-.183,1.949,1.284,1.49,2.958,3.371Z" transform="translate(12.978 13.83)" fill="#707070"/>
    <path id="Path_78" data-name="Path 78" d="M37.665,17.444l.183-1.949.413-4.471L33.9,10.038,31.978,9.6l-1.009-1.7L28.7,4.053,24.595,5.8l-1.811.78L20.972,5.8l-4.1-1.766L14.6,7.882l-1.009,1.7-1.926.436L7.306,11l.413,4.448L7.9,17.4l-1.284,1.49L3.66,22.282l2.958,3.371L7.9,27.143l-.183,1.949-.413,4.494,4.357.986,1.926.436L14.6,36.7l2.27,3.829,4.081-1.766,1.834-.757,1.811.78,4.081,1.766,2.27-3.852,1.009-1.7,1.926-.436,4.357-.986-.413-4.471-.183-1.949,1.284-1.49L41.884,22.3l-2.958-3.371ZM18.4,33.128,9.691,24.392,13.084,21l5.32,5.343,13.414-13.46,3.394,3.394Z" transform="translate(16.417 17.101)" fill="#bfbebe" opacity="0.3"/>
    <path id="Path_80" data-name="Path 80" d="M15,21.353,9.684,16.01,6.29,19.427,15,28.163l16.83-16.876L28.44,7.87Z" transform="translate(19.818 22.066)" fill="#707070"/>
  </g>
</svg>
